ISO-10303-21;
HEADER;
/* Generated by software containing ST-Developer
 * from STEP Tools, Inc. (www.steptools.com) 
 */

FILE_DESCRIPTION(
/* description */ (''),
/* implementation_level */ '2;1');

FILE_NAME(
/* name */ 'Switch 12V 50A A1.step',
/* time_stamp */ '2026-07-26T15:51:31-06:00',
/* author */ (''),
/* organization */ (''),
/* preprocessor_version */ 'ST-DEVELOPER v20.1',
/* originating_system */ 'Autodesk Translation Framework v15.8.0.0',
/* authorisation */ '');

FILE_SCHEMA (('AUTOMOTIVE_DESIGN { 1 0 10303 214 3 1 1 }'));
ENDSEC;

DATA;
#10=MECHANICAL_DESIGN_GEOMETRIC_PRESENTATION_REPRESENTATION('',(#13,#14),
#1881);
#11=SHAPE_REPRESENTATION_RELATIONSHIP('SRR','None',#1888,#12);
#12=ADVANCED_BREP_SHAPE_REPRESENTATION('',(#15,#16),#1880);
#13=STYLED_ITEM('',(#1897),#15);
#14=STYLED_ITEM('',(#1897),#16);
#15=MANIFOLD_SOLID_BREP('Body1',#1021);
#16=MANIFOLD_SOLID_BREP('Body2',#1022);
#17=FACE_BOUND('',#381,.T.);
#18=FACE_BOUND('',#387,.T.);
#19=FACE_BOUND('',#389,.T.);
#20=FACE_BOUND('',#391,.T.);
#21=FACE_BOUND('',#405,.T.);
#22=FACE_BOUND('',#424,.T.);
#23=FACE_BOUND('',#426,.T.);
#24=FACE_BOUND('',#435,.T.);
#25=FACE_BOUND('',#437,.T.);
#26=TOROIDAL_SURFACE('',#1039,1.75,1.5);
#27=TOROIDAL_SURFACE('',#1047,1.75,1.5);
#28=TOROIDAL_SURFACE('',#1055,12.25,2.);
#29=PLANE('',#1038);
#30=PLANE('',#1046);
#31=PLANE('',#1054);
#32=PLANE('',#1059);
#33=PLANE('',#1074);
#34=PLANE('',#1078);
#35=PLANE('',#1082);
#36=PLANE('',#1087);
#37=PLANE('',#1088);
#38=PLANE('',#1095);
#39=PLANE('',#1096);
#40=PLANE('',#1097);
#41=PLANE('',#1112);
#42=PLANE('',#1113);
#43=PLANE('',#1114);
#44=PLANE('',#1115);
#45=PLANE('',#1116);
#46=PLANE('',#1117);
#47=PLANE('',#1118);
#48=PLANE('',#1119);
#49=PLANE('',#1120);
#50=PLANE('',#1121);
#51=PLANE('',#1122);
#52=PLANE('',#1123);
#53=PLANE('',#1124);
#54=PLANE('',#1125);
#55=PLANE('',#1126);
#56=PLANE('',#1127);
#57=PLANE('',#1128);
#58=PLANE('',#1132);
#59=PLANE('',#1133);
#60=PLANE('',#1137);
#61=PLANE('',#1138);
#62=PLANE('',#1139);
#63=PLANE('',#1140);
#64=PLANE('',#1141);
#65=PLANE('',#1142);
#66=PLANE('',#1143);
#67=PLANE('',#1144);
#68=CIRCLE('',#1037,5.5);
#69=CIRCLE('',#1040,1.75);
#70=CIRCLE('',#1041,1.5);
#71=CIRCLE('',#1042,3.25);
#72=CIRCLE('',#1043,3.25);
#73=CIRCLE('',#1045,3.25);
#74=CIRCLE('',#1048,1.75);
#75=CIRCLE('',#1049,1.5);
#76=CIRCLE('',#1050,3.25);
#77=CIRCLE('',#1051,3.25);
#78=CIRCLE('',#1053,3.25);
#79=CIRCLE('',#1056,14.25);
#80=CIRCLE('',#1057,2.);
#81=CIRCLE('',#1058,12.25);
#82=CIRCLE('',#1060,11.);
#83=CIRCLE('',#1062,14.25);
#84=CIRCLE('',#1064,10.0148674743837);
#85=CIRCLE('',#1065,10.0148674743837);
#86=CIRCLE('',#1067,10.0148674743821);
#87=CIRCLE('',#1068,10.0148674743821);
#88=CIRCLE('',#1070,2.);
#89=CIRCLE('',#1071,2.);
#90=CIRCLE('',#1072,2.);
#91=CIRCLE('',#1073,2.);
#92=CIRCLE('',#1075,10.0148674743821);
#93=CIRCLE('',#1076,2.);
#94=CIRCLE('',#1077,5.);
#95=CIRCLE('',#1079,5.);
#96=CIRCLE('',#1080,2.);
#97=CIRCLE('',#1081,10.0148674743837);
#98=CIRCLE('',#1083,11.);
#99=CIRCLE('',#1084,5.);
#100=CIRCLE('',#1085,2.);
#101=CIRCLE('',#1086,5.);
#102=CIRCLE('',#1090,10.0148674743837);
#103=CIRCLE('',#1092,10.0148674743821);
#104=CIRCLE('',#1094,2.);
#105=CIRCLE('',#1102,7.75);
#106=CIRCLE('',#1103,7.75);
#107=CIRCLE('',#1104,7.75);
#108=CIRCLE('',#1105,7.75);
#109=CIRCLE('',#1106,7.75);
#110=CIRCLE('',#1107,7.75);
#111=CIRCLE('',#1108,7.75);
#112=CIRCLE('',#1109,7.75);
#113=CIRCLE('',#1110,7.75);
#114=CIRCLE('',#1111,7.75);
#115=CIRCLE('',#1130,13.25);
#116=CIRCLE('',#1131,13.25);
#117=CIRCLE('',#1135,8.);
#118=CIRCLE('',#1136,8.);
#119=LINE('',#1591,#207);
#120=LINE('',#1604,#208);
#121=LINE('',#1617,#209);
#122=LINE('',#1632,#210);
#123=LINE('',#1638,#211);
#124=LINE('',#1641,#212);
#125=LINE('',#1647,#213);
#126=LINE('',#1650,#214);
#127=LINE('',#1658,#215);
#128=LINE('',#1661,#216);
#129=LINE('',#1668,#217);
#130=LINE('',#1671,#218);
#131=LINE('',#1674,#219);
#132=LINE('',#1678,#220);
#133=LINE('',#1686,#221);
#134=LINE('',#1690,#222);
#135=LINE('',#1694,#223);
#136=LINE('',#1697,#224);
#137=LINE('',#1699,#225);
#138=LINE('',#1701,#226);
#139=LINE('',#1704,#227);
#140=LINE('',#1709,#228);
#141=LINE('',#1712,#229);
#142=LINE('',#1713,#230);
#143=LINE('',#1716,#231);
#144=LINE('',#1718,#232);
#145=LINE('',#1722,#233);
#146=LINE('',#1727,#234);
#147=LINE('',#1731,#235);
#148=LINE('',#1735,#236);
#149=LINE('',#1739,#237);
#150=LINE('',#1743,#238);
#151=LINE('',#1747,#239);
#152=LINE('',#1751,#240);
#153=LINE('',#1755,#241);
#154=LINE('',#1759,#242);
#155=LINE('',#1764,#243);
#156=LINE('',#1766,#244);
#157=LINE('',#1767,#245);
#158=LINE('',#1770,#246);
#159=LINE('',#1772,#247);
#160=LINE('',#1773,#248);
#161=LINE('',#1775,#249);
#162=LINE('',#1776,#250);
#163=LINE('',#1780,#251);
#164=LINE('',#1782,#252);
#165=LINE('',#1783,#253);
#166=LINE('',#1786,#254);
#167=LINE('',#1788,#255);
#168=LINE('',#1789,#256);
#169=LINE('',#1791,#257);
#170=LINE('',#1792,#258);
#171=LINE('',#1796,#259);
#172=LINE('',#1798,#260);
#173=LINE('',#1799,#261);
#174=LINE('',#1802,#262);
#175=LINE('',#1804,#263);
#176=LINE('',#1805,#264);
#177=LINE('',#1807,#265);
#178=LINE('',#1808,#266);
#179=LINE('',#1812,#267);
#180=LINE('',#1814,#268);
#181=LINE('',#1815,#269);
#182=LINE('',#1818,#270);
#183=LINE('',#1820,#271);
#184=LINE('',#1821,#272);
#185=LINE('',#1823,#273);
#186=LINE('',#1824,#274);
#187=LINE('',#1830,#275);
#188=LINE('',#1838,#276);
#189=LINE('',#1843,#277);
#190=LINE('',#1845,#278);
#191=LINE('',#1847,#279);
#192=LINE('',#1848,#280);
#193=LINE('',#1851,#281);
#194=LINE('',#1853,#282);
#195=LINE('',#1854,#283);
#196=LINE('',#1857,#284);
#197=LINE('',#1859,#285);
#198=LINE('',#1860,#286);
#199=LINE('',#1863,#287);
#200=LINE('',#1865,#288);
#201=LINE('',#1866,#289);
#202=LINE('',#1869,#290);
#203=LINE('',#1871,#291);
#204=LINE('',#1872,#292);
#205=LINE('',#1874,#293);
#206=LINE('',#1875,#294);
#207=VECTOR('',#1149,5.5);
#208=VECTOR('',#1166,3.25);
#209=VECTOR('',#1183,3.25);
#210=VECTOR('',#1204,14.25);
#211=VECTOR('',#1209,10.);
#212=VECTOR('',#1212,10.);
#213=VECTOR('',#1217,10.);
#214=VECTOR('',#1220,10.);
#215=VECTOR('',#1229,10.);
#216=VECTOR('',#1232,10.);
#217=VECTOR('',#1239,10.);
#218=VECTOR('',#1242,10.);
#219=VECTOR('',#1245,10.);
#220=VECTOR('',#1248,10.);
#221=VECTOR('',#1257,10.);
#222=VECTOR('',#1260,10.);
#223=VECTOR('',#1263,10.);
#224=VECTOR('',#1266,10.);
#225=VECTOR('',#1269,10.);
#226=VECTOR('',#1272,10.);
#227=VECTOR('',#1275,10.);
#228=VECTOR('',#1282,10.);
#229=VECTOR('',#1287,10.);
#230=VECTOR('',#1288,10.);
#231=VECTOR('',#1293,10.);
#232=VECTOR('',#1296,10.);
#233=VECTOR('',#1303,11.);
#234=VECTOR('',#1308,7.75);
#235=VECTOR('',#1311,10.);
#236=VECTOR('',#1314,10.);
#237=VECTOR('',#1317,10.);
#238=VECTOR('',#1320,10.);
#239=VECTOR('',#1323,10.);
#240=VECTOR('',#1326,10.);
#241=VECTOR('',#1329,10.);
#242=VECTOR('',#1332,10.);
#243=VECTOR('',#1339,10.);
#244=VECTOR('',#1340,10.);
#245=VECTOR('',#1341,10.);
#246=VECTOR('',#1344,10.);
#247=VECTOR('',#1345,10.);
#248=VECTOR('',#1346,10.);
#249=VECTOR('',#1349,10.);
#250=VECTOR('',#1350,10.);
#251=VECTOR('',#1355,10.);
#252=VECTOR('',#1356,10.);
#253=VECTOR('',#1357,10.);
#254=VECTOR('',#1360,10.);
#255=VECTOR('',#1361,10.);
#256=VECTOR('',#1362,10.);
#257=VECTOR('',#1365,10.);
#258=VECTOR('',#1366,10.);
#259=VECTOR('',#1371,10.);
#260=VECTOR('',#1372,10.);
#261=VECTOR('',#1373,10.);
#262=VECTOR('',#1376,10.);
#263=VECTOR('',#1377,10.);
#264=VECTOR('',#1378,10.);
#265=VECTOR('',#1381,10.);
#266=VECTOR('',#1382,10.);
#267=VECTOR('',#1387,10.);
#268=VECTOR('',#1388,10.);
#269=VECTOR('',#1389,10.);
#270=VECTOR('',#1392,10.);
#271=VECTOR('',#1393,10.);
#272=VECTOR('',#1394,10.);
#273=VECTOR('',#1397,10.);
#274=VECTOR('',#1398,10.);
#275=VECTOR('',#1405,13.25);
#276=VECTOR('',#1416,8.);
#277=VECTOR('',#1421,10.);
#278=VECTOR('',#1422,10.);
#279=VECTOR('',#1423,10.);
#280=VECTOR('',#1424,10.);
#281=VECTOR('',#1427,10.);
#282=VECTOR('',#1428,10.);
#283=VECTOR('',#1429,10.);
#284=VECTOR('',#1432,10.);
#285=VECTOR('',#1433,10.);
#286=VECTOR('',#1434,10.);
#287=VECTOR('',#1437,10.);
#288=VECTOR('',#1438,10.);
#289=VECTOR('',#1439,10.);
#290=VECTOR('',#1442,10.);
#291=VECTOR('',#1443,10.);
#292=VECTOR('',#1444,10.);
#293=VECTOR('',#1447,10.);
#294=VECTOR('',#1448,10.);
#295=CYLINDRICAL_SURFACE('',#1036,5.5);
#296=CYLINDRICAL_SURFACE('',#1044,3.25);
#297=CYLINDRICAL_SURFACE('',#1052,3.25);
#298=CYLINDRICAL_SURFACE('',#1061,14.25);
#299=CYLINDRICAL_SURFACE('',#1063,10.0148674743837);
#300=CYLINDRICAL_SURFACE('',#1066,10.0148674743821);
#301=CYLINDRICAL_SURFACE('',#1069,2.);
#302=CYLINDRICAL_SURFACE('',#1089,10.0148674743837);
#303=CYLINDRICAL_SURFACE('',#1091,10.0148674743821);
#304=CYLINDRICAL_SURFACE('',#1093,2.);
#305=CYLINDRICAL_SURFACE('',#1098,5.);
#306=CYLINDRICAL_SURFACE('',#1099,5.);
#307=CYLINDRICAL_SURFACE('',#1100,11.);
#308=CYLINDRICAL_SURFACE('',#1101,7.75);
#309=CYLINDRICAL_SURFACE('',#1129,13.25);
#310=CYLINDRICAL_SURFACE('',#1134,8.);
#311=FACE_OUTER_BOUND('',#370,.T.);
#312=FACE_OUTER_BOUND('',#371,.T.);
#313=FACE_OUTER_BOUND('',#372,.T.);
#314=FACE_OUTER_BOUND('',#373,.T.);
#315=FACE_OUTER_BOUND('',#374,.T.);
#316=FACE_OUTER_BOUND('',#375,.T.);
#317=FACE_OUTER_BOUND('',#376,.T.);
#318=FACE_OUTER_BOUND('',#377,.T.);
#319=FACE_OUTER_BOUND('',#378,.T.);
#320=FACE_OUTER_BOUND('',#379,.T.);
#321=FACE_OUTER_BOUND('',#380,.T.);
#322=FACE_OUTER_BOUND('',#382,.T.);
#323=FACE_OUTER_BOUND('',#383,.T.);
#324=FACE_OUTER_BOUND('',#384,.T.);
#325=FACE_OUTER_BOUND('',#385,.T.);
#326=FACE_OUTER_BOUND('',#386,.T.);
#327=FACE_OUTER_BOUND('',#388,.T.);
#328=FACE_OUTER_BOUND('',#390,.T.);
#329=FACE_OUTER_BOUND('',#392,.T.);
#330=FACE_OUTER_BOUND('',#393,.T.);
#331=FACE_OUTER_BOUND('',#394,.T.);
#332=FACE_OUTER_BOUND('',#395,.T.);
#333=FACE_OUTER_BOUND('',#396,.T.);
#334=FACE_OUTER_BOUND('',#397,.T.);
#335=FACE_OUTER_BOUND('',#398,.T.);
#336=FACE_OUTER_BOUND('',#399,.T.);
#337=FACE_OUTER_BOUND('',#400,.T.);
#338=FACE_OUTER_BOUND('',#401,.T.);
#339=FACE_OUTER_BOUND('',#402,.T.);
#340=FACE_OUTER_BOUND('',#403,.T.);
#341=FACE_OUTER_BOUND('',#404,.T.);
#342=FACE_OUTER_BOUND('',#406,.T.);
#343=FACE_OUTER_BOUND('',#407,.T.);
#344=FACE_OUTER_BOUND('',#408,.T.);
#345=FACE_OUTER_BOUND('',#409,.T.);
#346=FACE_OUTER_BOUND('',#410,.T.);
#347=FACE_OUTER_BOUND('',#411,.T.);
#348=FACE_OUTER_BOUND('',#412,.T.);
#349=FACE_OUTER_BOUND('',#413,.T.);
#350=FACE_OUTER_BOUND('',#414,.T.);
#351=FACE_OUTER_BOUND('',#415,.T.);
#352=FACE_OUTER_BOUND('',#416,.T.);
#353=FACE_OUTER_BOUND('',#417,.T.);
#354=FACE_OUTER_BOUND('',#418,.T.);
#355=FACE_OUTER_BOUND('',#419,.T.);
#356=FACE_OUTER_BOUND('',#420,.T.);
#357=FACE_OUTER_BOUND('',#421,.T.);
#358=FACE_OUTER_BOUND('',#422,.T.);
#359=FACE_OUTER_BOUND('',#423,.T.);
#360=FACE_OUTER_BOUND('',#425,.T.);
#361=FACE_OUTER_BOUND('',#427,.T.);
#362=FACE_OUTER_BOUND('',#428,.T.);
#363=FACE_OUTER_BOUND('',#429,.T.);
#364=FACE_OUTER_BOUND('',#430,.T.);
#365=FACE_OUTER_BOUND('',#431,.T.);
#366=FACE_OUTER_BOUND('',#432,.T.);
#367=FACE_OUTER_BOUND('',#433,.T.);
#368=FACE_OUTER_BOUND('',#434,.T.);
#369=FACE_OUTER_BOUND('',#436,.T.);
#370=EDGE_LOOP('',(#677,#678,#679,#680));
#371=EDGE_LOOP('',(#681,#682,#683,#684));
#372=EDGE_LOOP('',(#685));
#373=EDGE_LOOP('',(#686,#687,#688,#689,#690));
#374=EDGE_LOOP('',(#691,#692,#693,#694,#695));
#375=EDGE_LOOP('',(#696));
#376=EDGE_LOOP('',(#697,#698,#699,#700,#701));
#377=EDGE_LOOP('',(#702,#703,#704,#705,#706));
#378=EDGE_LOOP('',(#707));
#379=EDGE_LOOP('',(#708,#709,#710,#711));
#380=EDGE_LOOP('',(#712));
#381=EDGE_LOOP('',(#713));
#382=EDGE_LOOP('',(#714,#715,#716,#717));
#383=EDGE_LOOP('',(#718,#719,#720,#721));
#384=EDGE_LOOP('',(#722,#723,#724,#725));
#385=EDGE_LOOP('',(#726,#727,#728,#729,#730,#731,#732,#733));
#386=EDGE_LOOP('',(#734,#735,#736,#737,#738,#739,#740));
#387=EDGE_LOOP('',(#741));
#388=EDGE_LOOP('',(#742,#743,#744,#745,#746,#747,#748));
#389=EDGE_LOOP('',(#749));
#390=EDGE_LOOP('',(#750));
#391=EDGE_LOOP('',(#751,#752,#753,#754,#755,#756,#757,#758));
#392=EDGE_LOOP('',(#759,#760,#761,#762));
#393=EDGE_LOOP('',(#763,#764,#765,#766));
#394=EDGE_LOOP('',(#767,#768,#769,#770));
#395=EDGE_LOOP('',(#771,#772,#773,#774));
#396=EDGE_LOOP('',(#775,#776,#777,#778,#779,#780,#781,#782));
#397=EDGE_LOOP('',(#783,#784,#785,#786,#787,#788));
#398=EDGE_LOOP('',(#789,#790,#791,#792));
#399=EDGE_LOOP('',(#793,#794,#795,#796));
#400=EDGE_LOOP('',(#797,#798,#799,#800));
#401=EDGE_LOOP('',(#801,#802,#803,#804));
#402=EDGE_LOOP('',(#805,#806,#807,#808));
#403=EDGE_LOOP('',(#809,#810,#811,#812,#813,#814,#815,#816,#817,#818,#819,
#820,#821,#822,#823,#824,#825,#826,#827,#828));
#404=EDGE_LOOP('',(#829));
#405=EDGE_LOOP('',(#830));
#406=EDGE_LOOP('',(#831,#832,#833,#834));
#407=EDGE_LOOP('',(#835,#836,#837,#838));
#408=EDGE_LOOP('',(#839,#840,#841,#842));
#409=EDGE_LOOP('',(#843,#844,#845,#846));
#410=EDGE_LOOP('',(#847,#848,#849,#850));
#411=EDGE_LOOP('',(#851,#852,#853,#854));
#412=EDGE_LOOP('',(#855,#856,#857,#858));
#413=EDGE_LOOP('',(#859,#860,#861,#862));
#414=EDGE_LOOP('',(#863,#864,#865,#866));
#415=EDGE_LOOP('',(#867,#868,#869,#870));
#416=EDGE_LOOP('',(#871,#872,#873,#874));
#417=EDGE_LOOP('',(#875,#876,#877,#878,#879));
#418=EDGE_LOOP('',(#880,#881,#882,#883));
#419=EDGE_LOOP('',(#884,#885,#886,#887));
#420=EDGE_LOOP('',(#888,#889,#890,#891));
#421=EDGE_LOOP('',(#892,#893,#894,#895));
#422=EDGE_LOOP('',(#896,#897,#898,#899));
#423=EDGE_LOOP('',(#900));
#424=EDGE_LOOP('',(#901,#902,#903,#904,#905,#906,#907,#908,#909,#910,#911,
#912,#913,#914,#915,#916));
#425=EDGE_LOOP('',(#917));
#426=EDGE_LOOP('',(#918));
#427=EDGE_LOOP('',(#919,#920,#921,#922));
#428=EDGE_LOOP('',(#923,#924,#925,#926));
#429=EDGE_LOOP('',(#927,#928,#929,#930));
#430=EDGE_LOOP('',(#931,#932,#933,#934));
#431=EDGE_LOOP('',(#935,#936,#937,#938));
#432=EDGE_LOOP('',(#939,#940,#941,#942));
#433=EDGE_LOOP('',(#943,#944,#945,#946));
#434=EDGE_LOOP('',(#947,#948,#949,#950,#951,#952));
#435=EDGE_LOOP('',(#953));
#436=EDGE_LOOP('',(#954,#955,#956,#957,#958,#959));
#437=EDGE_LOOP('',(#960));
#438=B_SPLINE_CURVE_WITH_KNOTS('',3,(#1554,#1555,#1556,#1557,#1558,#1559,
#1560),.UNSPECIFIED.,.F.,.F.,(4,1,1,1,4),(0.,0.285714285714286,0.571428571428571,
0.714285714285714,1.),.UNSPECIFIED.);
#439=B_SPLINE_CURVE_WITH_KNOTS('',3,(#1561,#1562,#1563,#1564,#1565,#1566,
#1567,#1568,#1569,#1570,#1571,#1572,#1573,#1574),.UNSPECIFIED.,.T.,.F.,
(4,1,1,1,1,1,1,1,1,1,1,4),(-3.14159265358979,-2.69279370307697,-2.24399475256414,
-1.79519580205131,-1.34639685153848,-0.448798950512828,0.448798950512828,
0.897597901025655,1.34639685153848,2.24399475256414,2.69279370307697,3.14159265358979),
 .UNSPECIFIED.);
#440=B_SPLINE_CURVE_WITH_KNOTS('',3,(#1575,#1576,#1577,#1578,#1579,#1580,
#1581,#1582,#1583,#1584,#1585,#1586,#1587,#1588),.UNSPECIFIED.,.T.,.F.,
(4,1,1,1,1,1,1,1,1,1,1,4),(-3.14159265358979,-2.69279370307697,-2.24399475256414,
-1.34639685153848,-0.897597901025655,-0.448798950512828,0.448798950512828,
1.34639685153848,1.79519580205131,2.24399475256414,2.69279370307697,3.14159265358979),
 .UNSPECIFIED.);
#441=VERTEX_POINT('',#1552);
#442=VERTEX_POINT('',#1553);
#443=VERTEX_POINT('',#1590);
#444=VERTEX_POINT('',#1595);
#445=VERTEX_POINT('',#1597);
#446=VERTEX_POINT('',#1599);
#447=VERTEX_POINT('',#1603);
#448=VERTEX_POINT('',#1608);
#449=VERTEX_POINT('',#1610);
#450=VERTEX_POINT('',#1612);
#451=VERTEX_POINT('',#1616);
#452=VERTEX_POINT('',#1621);
#453=VERTEX_POINT('',#1623);
#454=VERTEX_POINT('',#1627);
#455=VERTEX_POINT('',#1630);
#456=VERTEX_POINT('',#1634);
#457=VERTEX_POINT('',#1635);
#458=VERTEX_POINT('',#1637);
#459=VERTEX_POINT('',#1639);
#460=VERTEX_POINT('',#1643);
#461=VERTEX_POINT('',#1644);
#462=VERTEX_POINT('',#1646);
#463=VERTEX_POINT('',#1648);
#464=VERTEX_POINT('',#1652);
#465=VERTEX_POINT('',#1655);
#466=VERTEX_POINT('',#1657);
#467=VERTEX_POINT('',#1659);
#468=VERTEX_POINT('',#1663);
#469=VERTEX_POINT('',#1665);
#470=VERTEX_POINT('',#1667);
#471=VERTEX_POINT('',#1669);
#472=VERTEX_POINT('',#1673);
#473=VERTEX_POINT('',#1675);
#474=VERTEX_POINT('',#1677);
#475=VERTEX_POINT('',#1679);
#476=VERTEX_POINT('',#1683);
#477=VERTEX_POINT('',#1685);
#478=VERTEX_POINT('',#1687);
#479=VERTEX_POINT('',#1689);
#480=VERTEX_POINT('',#1691);
#481=VERTEX_POINT('',#1693);
#482=VERTEX_POINT('',#1695);
#483=VERTEX_POINT('',#1703);
#484=VERTEX_POINT('',#1707);
#485=VERTEX_POINT('',#1724);
#486=VERTEX_POINT('',#1726);
#487=VERTEX_POINT('',#1728);
#488=VERTEX_POINT('',#1730);
#489=VERTEX_POINT('',#1732);
#490=VERTEX_POINT('',#1734);
#491=VERTEX_POINT('',#1736);
#492=VERTEX_POINT('',#1738);
#493=VERTEX_POINT('',#1740);
#494=VERTEX_POINT('',#1742);
#495=VERTEX_POINT('',#1744);
#496=VERTEX_POINT('',#1746);
#497=VERTEX_POINT('',#1748);
#498=VERTEX_POINT('',#1750);
#499=VERTEX_POINT('',#1752);
#500=VERTEX_POINT('',#1754);
#501=VERTEX_POINT('',#1756);
#502=VERTEX_POINT('',#1758);
#503=VERTEX_POINT('',#1763);
#504=VERTEX_POINT('',#1765);
#505=VERTEX_POINT('',#1769);
#506=VERTEX_POINT('',#1771);
#507=VERTEX_POINT('',#1779);
#508=VERTEX_POINT('',#1781);
#509=VERTEX_POINT('',#1785);
#510=VERTEX_POINT('',#1787);
#511=VERTEX_POINT('',#1795);
#512=VERTEX_POINT('',#1797);
#513=VERTEX_POINT('',#1801);
#514=VERTEX_POINT('',#1803);
#515=VERTEX_POINT('',#1811);
#516=VERTEX_POINT('',#1813);
#517=VERTEX_POINT('',#1817);
#518=VERTEX_POINT('',#1819);
#519=VERTEX_POINT('',#1827);
#520=VERTEX_POINT('',#1829);
#521=VERTEX_POINT('',#1835);
#522=VERTEX_POINT('',#1837);
#523=VERTEX_POINT('',#1841);
#524=VERTEX_POINT('',#1842);
#525=VERTEX_POINT('',#1844);
#526=VERTEX_POINT('',#1846);
#527=VERTEX_POINT('',#1850);
#528=VERTEX_POINT('',#1852);
#529=VERTEX_POINT('',#1856);
#530=VERTEX_POINT('',#1858);
#531=VERTEX_POINT('',#1862);
#532=VERTEX_POINT('',#1864);
#533=VERTEX_POINT('',#1868);
#534=VERTEX_POINT('',#1870);
#535=EDGE_CURVE('',#441,#442,#438,.T.);
#536=EDGE_CURVE('',#442,#442,#439,.T.);
#537=EDGE_CURVE('',#441,#441,#440,.T.);
#538=EDGE_CURVE('',#442,#443,#119,.T.);
#539=EDGE_CURVE('',#443,#443,#68,.T.);
#540=EDGE_CURVE('',#444,#444,#69,.T.);
#541=EDGE_CURVE('',#444,#445,#70,.T.);
#542=EDGE_CURVE('',#445,#446,#71,.T.);
#543=EDGE_CURVE('',#446,#445,#72,.T.);
#544=EDGE_CURVE('',#446,#447,#120,.T.);
#545=EDGE_CURVE('',#447,#447,#73,.T.);
#546=EDGE_CURVE('',#448,#448,#74,.T.);
#547=EDGE_CURVE('',#448,#449,#75,.T.);
#548=EDGE_CURVE('',#449,#450,#76,.T.);
#549=EDGE_CURVE('',#450,#449,#77,.T.);
#550=EDGE_CURVE('',#450,#451,#121,.T.);
#551=EDGE_CURVE('',#451,#451,#78,.T.);
#552=EDGE_CURVE('',#452,#452,#79,.T.);
#553=EDGE_CURVE('',#452,#453,#80,.T.);
#554=EDGE_CURVE('',#453,#453,#81,.T.);
#555=EDGE_CURVE('',#454,#454,#82,.T.);
#556=EDGE_CURVE('',#455,#455,#83,.T.);
#557=EDGE_CURVE('',#455,#452,#122,.T.);
#558=EDGE_CURVE('',#456,#457,#84,.T.);
#559=EDGE_CURVE('',#456,#458,#123,.T.);
#560=EDGE_CURVE('',#459,#458,#85,.T.);
#561=EDGE_CURVE('',#457,#459,#124,.T.);
#562=EDGE_CURVE('',#460,#461,#86,.T.);
#563=EDGE_CURVE('',#460,#462,#125,.T.);
#564=EDGE_CURVE('',#463,#462,#87,.T.);
#565=EDGE_CURVE('',#461,#463,#126,.T.);
#566=EDGE_CURVE('',#461,#464,#88,.T.);
#567=EDGE_CURVE('',#458,#463,#89,.T.);
#568=EDGE_CURVE('',#465,#456,#90,.T.);
#569=EDGE_CURVE('',#466,#465,#127,.T.);
#570=EDGE_CURVE('',#467,#466,#91,.T.);
#571=EDGE_CURVE('',#464,#467,#128,.T.);
#572=EDGE_CURVE('',#457,#468,#92,.T.);
#573=EDGE_CURVE('',#468,#469,#93,.T.);
#574=EDGE_CURVE('',#469,#470,#129,.T.);
#575=EDGE_CURVE('',#470,#471,#94,.T.);
#576=EDGE_CURVE('',#471,#465,#130,.T.);
#577=EDGE_CURVE('',#464,#472,#131,.T.);
#578=EDGE_CURVE('',#472,#473,#95,.T.);
#579=EDGE_CURVE('',#473,#474,#132,.T.);
#580=EDGE_CURVE('',#474,#475,#96,.T.);
#581=EDGE_CURVE('',#475,#460,#97,.T.);
#582=EDGE_CURVE('',#476,#476,#98,.T.);
#583=EDGE_CURVE('',#466,#477,#133,.T.);
#584=EDGE_CURVE('',#477,#478,#99,.T.);
#585=EDGE_CURVE('',#478,#479,#134,.T.);
#586=EDGE_CURVE('',#479,#480,#100,.T.);
#587=EDGE_CURVE('',#480,#481,#135,.T.);
#588=EDGE_CURVE('',#481,#482,#101,.T.);
#589=EDGE_CURVE('',#482,#467,#136,.T.);
#590=EDGE_CURVE('',#477,#471,#137,.T.);
#591=EDGE_CURVE('',#482,#472,#138,.T.);
#592=EDGE_CURVE('',#475,#483,#139,.T.);
#593=EDGE_CURVE('',#462,#483,#102,.T.);
#594=EDGE_CURVE('',#484,#459,#103,.T.);
#595=EDGE_CURVE('',#468,#484,#140,.T.);
#596=EDGE_CURVE('',#483,#484,#104,.T.);
#597=EDGE_CURVE('',#480,#474,#141,.T.);
#598=EDGE_CURVE('',#469,#479,#142,.T.);
#599=EDGE_CURVE('',#481,#473,#143,.T.);
#600=EDGE_CURVE('',#478,#470,#144,.T.);
#601=EDGE_CURVE('',#476,#454,#145,.T.);
#602=EDGE_CURVE('',#485,#485,#105,.T.);
#603=EDGE_CURVE('',#485,#486,#146,.T.);
#604=EDGE_CURVE('',#487,#486,#106,.T.);
#605=EDGE_CURVE('',#488,#487,#147,.T.);
#606=EDGE_CURVE('',#489,#488,#107,.T.);
#607=EDGE_CURVE('',#489,#490,#148,.T.);
#608=EDGE_CURVE('',#491,#490,#108,.T.);
#609=EDGE_CURVE('',#492,#491,#149,.T.);
#610=EDGE_CURVE('',#493,#492,#109,.T.);
#611=EDGE_CURVE('',#493,#494,#150,.T.);
#612=EDGE_CURVE('',#495,#494,#110,.T.);
#613=EDGE_CURVE('',#496,#495,#151,.T.);
#614=EDGE_CURVE('',#497,#496,#111,.T.);
#615=EDGE_CURVE('',#497,#498,#152,.T.);
#616=EDGE_CURVE('',#499,#498,#112,.T.);
#617=EDGE_CURVE('',#500,#499,#153,.T.);
#618=EDGE_CURVE('',#501,#500,#113,.T.);
#619=EDGE_CURVE('',#501,#502,#154,.T.);
#620=EDGE_CURVE('',#486,#502,#114,.T.);
#621=EDGE_CURVE('',#503,#489,#155,.T.);
#622=EDGE_CURVE('',#503,#504,#156,.T.);
#623=EDGE_CURVE('',#490,#504,#157,.T.);
#624=EDGE_CURVE('',#492,#505,#158,.T.);
#625=EDGE_CURVE('',#506,#491,#159,.T.);
#626=EDGE_CURVE('',#505,#506,#160,.T.);
#627=EDGE_CURVE('',#505,#503,#161,.T.);
#628=EDGE_CURVE('',#504,#506,#162,.T.);
#629=EDGE_CURVE('',#507,#497,#163,.T.);
#630=EDGE_CURVE('',#507,#508,#164,.T.);
#631=EDGE_CURVE('',#498,#508,#165,.T.);
#632=EDGE_CURVE('',#500,#509,#166,.T.);
#633=EDGE_CURVE('',#510,#499,#167,.T.);
#634=EDGE_CURVE('',#509,#510,#168,.T.);
#635=EDGE_CURVE('',#509,#507,#169,.T.);
#636=EDGE_CURVE('',#508,#510,#170,.T.);
#637=EDGE_CURVE('',#511,#501,#171,.T.);
#638=EDGE_CURVE('',#511,#512,#172,.T.);
#639=EDGE_CURVE('',#502,#512,#173,.T.);
#640=EDGE_CURVE('',#488,#513,#174,.T.);
#641=EDGE_CURVE('',#514,#487,#175,.T.);
#642=EDGE_CURVE('',#513,#514,#176,.T.);
#643=EDGE_CURVE('',#513,#511,#177,.T.);
#644=EDGE_CURVE('',#512,#514,#178,.T.);
#645=EDGE_CURVE('',#515,#493,#179,.T.);
#646=EDGE_CURVE('',#515,#516,#180,.T.);
#647=EDGE_CURVE('',#494,#516,#181,.T.);
#648=EDGE_CURVE('',#517,#515,#182,.T.);
#649=EDGE_CURVE('',#517,#518,#183,.T.);
#650=EDGE_CURVE('',#516,#518,#184,.T.);
#651=EDGE_CURVE('',#496,#517,#185,.T.);
#652=EDGE_CURVE('',#518,#495,#186,.T.);
#653=EDGE_CURVE('',#519,#519,#115,.T.);
#654=EDGE_CURVE('',#519,#520,#187,.T.);
#655=EDGE_CURVE('',#520,#520,#116,.T.);
#656=EDGE_CURVE('',#521,#521,#117,.T.);
#657=EDGE_CURVE('',#521,#522,#188,.T.);
#658=EDGE_CURVE('',#522,#522,#118,.T.);
#659=EDGE_CURVE('',#523,#524,#189,.T.);
#660=EDGE_CURVE('',#523,#525,#190,.T.);
#661=EDGE_CURVE('',#526,#525,#191,.T.);
#662=EDGE_CURVE('',#524,#526,#192,.T.);
#663=EDGE_CURVE('',#524,#527,#193,.T.);
#664=EDGE_CURVE('',#528,#526,#194,.T.);
#665=EDGE_CURVE('',#527,#528,#195,.T.);
#666=EDGE_CURVE('',#527,#529,#196,.T.);
#667=EDGE_CURVE('',#530,#528,#197,.T.);
#668=EDGE_CURVE('',#529,#530,#198,.T.);
#669=EDGE_CURVE('',#529,#531,#199,.T.);
#670=EDGE_CURVE('',#532,#530,#200,.T.);
#671=EDGE_CURVE('',#531,#532,#201,.T.);
#672=EDGE_CURVE('',#531,#533,#202,.T.);
#673=EDGE_CURVE('',#534,#532,#203,.T.);
#674=EDGE_CURVE('',#533,#534,#204,.T.);
#675=EDGE_CURVE('',#533,#523,#205,.T.);
#676=EDGE_CURVE('',#525,#534,#206,.T.);
#677=ORIENTED_EDGE('',*,*,#535,.T.);
#678=ORIENTED_EDGE('',*,*,#536,.T.);
#679=ORIENTED_EDGE('',*,*,#535,.F.);
#680=ORIENTED_EDGE('',*,*,#537,.T.);
#681=ORIENTED_EDGE('',*,*,#536,.F.);
#682=ORIENTED_EDGE('',*,*,#538,.T.);
#683=ORIENTED_EDGE('',*,*,#539,.F.);
#684=ORIENTED_EDGE('',*,*,#538,.F.);
#685=ORIENTED_EDGE('',*,*,#537,.F.);
#686=ORIENTED_EDGE('',*,*,#540,.T.);
#687=ORIENTED_EDGE('',*,*,#541,.T.);
#688=ORIENTED_EDGE('',*,*,#542,.T.);
#689=ORIENTED_EDGE('',*,*,#543,.T.);
#690=ORIENTED_EDGE('',*,*,#541,.F.);
#691=ORIENTED_EDGE('',*,*,#543,.F.);
#692=ORIENTED_EDGE('',*,*,#544,.T.);
#693=ORIENTED_EDGE('',*,*,#545,.F.);
#694=ORIENTED_EDGE('',*,*,#544,.F.);
#695=ORIENTED_EDGE('',*,*,#542,.F.);
#696=ORIENTED_EDGE('',*,*,#540,.F.);
#697=ORIENTED_EDGE('',*,*,#546,.T.);
#698=ORIENTED_EDGE('',*,*,#547,.T.);
#699=ORIENTED_EDGE('',*,*,#548,.T.);
#700=ORIENTED_EDGE('',*,*,#549,.T.);
#701=ORIENTED_EDGE('',*,*,#547,.F.);
#702=ORIENTED_EDGE('',*,*,#549,.F.);
#703=ORIENTED_EDGE('',*,*,#550,.T.);
#704=ORIENTED_EDGE('',*,*,#551,.F.);
#705=ORIENTED_EDGE('',*,*,#550,.F.);
#706=ORIENTED_EDGE('',*,*,#548,.F.);
#707=ORIENTED_EDGE('',*,*,#546,.F.);
#708=ORIENTED_EDGE('',*,*,#552,.T.);
#709=ORIENTED_EDGE('',*,*,#553,.T.);
#710=ORIENTED_EDGE('',*,*,#554,.T.);
#711=ORIENTED_EDGE('',*,*,#553,.F.);
#712=ORIENTED_EDGE('',*,*,#554,.F.);
#713=ORIENTED_EDGE('',*,*,#555,.T.);
#714=ORIENTED_EDGE('',*,*,#556,.F.);
#715=ORIENTED_EDGE('',*,*,#557,.T.);
#716=ORIENTED_EDGE('',*,*,#552,.F.);
#717=ORIENTED_EDGE('',*,*,#557,.F.);
#718=ORIENTED_EDGE('',*,*,#558,.F.);
#719=ORIENTED_EDGE('',*,*,#559,.T.);
#720=ORIENTED_EDGE('',*,*,#560,.F.);
#721=ORIENTED_EDGE('',*,*,#561,.F.);
#722=ORIENTED_EDGE('',*,*,#562,.F.);
#723=ORIENTED_EDGE('',*,*,#563,.T.);
#724=ORIENTED_EDGE('',*,*,#564,.F.);
#725=ORIENTED_EDGE('',*,*,#565,.F.);
#726=ORIENTED_EDGE('',*,*,#566,.F.);
#727=ORIENTED_EDGE('',*,*,#565,.T.);
#728=ORIENTED_EDGE('',*,*,#567,.F.);
#729=ORIENTED_EDGE('',*,*,#559,.F.);
#730=ORIENTED_EDGE('',*,*,#568,.F.);
#731=ORIENTED_EDGE('',*,*,#569,.F.);
#732=ORIENTED_EDGE('',*,*,#570,.F.);
#733=ORIENTED_EDGE('',*,*,#571,.F.);
#734=ORIENTED_EDGE('',*,*,#558,.T.);
#735=ORIENTED_EDGE('',*,*,#572,.T.);
#736=ORIENTED_EDGE('',*,*,#573,.T.);
#737=ORIENTED_EDGE('',*,*,#574,.T.);
#738=ORIENTED_EDGE('',*,*,#575,.T.);
#739=ORIENTED_EDGE('',*,*,#576,.T.);
#740=ORIENTED_EDGE('',*,*,#568,.T.);
#741=ORIENTED_EDGE('',*,*,#545,.T.);
#742=ORIENTED_EDGE('',*,*,#562,.T.);
#743=ORIENTED_EDGE('',*,*,#566,.T.);
#744=ORIENTED_EDGE('',*,*,#577,.T.);
#745=ORIENTED_EDGE('',*,*,#578,.T.);
#746=ORIENTED_EDGE('',*,*,#579,.T.);
#747=ORIENTED_EDGE('',*,*,#580,.T.);
#748=ORIENTED_EDGE('',*,*,#581,.T.);
#749=ORIENTED_EDGE('',*,*,#551,.T.);
#750=ORIENTED_EDGE('',*,*,#582,.T.);
#751=ORIENTED_EDGE('',*,*,#570,.T.);
#752=ORIENTED_EDGE('',*,*,#583,.T.);
#753=ORIENTED_EDGE('',*,*,#584,.T.);
#754=ORIENTED_EDGE('',*,*,#585,.T.);
#755=ORIENTED_EDGE('',*,*,#586,.T.);
#756=ORIENTED_EDGE('',*,*,#587,.T.);
#757=ORIENTED_EDGE('',*,*,#588,.T.);
#758=ORIENTED_EDGE('',*,*,#589,.T.);
#759=ORIENTED_EDGE('',*,*,#569,.T.);
#760=ORIENTED_EDGE('',*,*,#576,.F.);
#761=ORIENTED_EDGE('',*,*,#590,.F.);
#762=ORIENTED_EDGE('',*,*,#583,.F.);
#763=ORIENTED_EDGE('',*,*,#571,.T.);
#764=ORIENTED_EDGE('',*,*,#589,.F.);
#765=ORIENTED_EDGE('',*,*,#591,.T.);
#766=ORIENTED_EDGE('',*,*,#577,.F.);
#767=ORIENTED_EDGE('',*,*,#581,.F.);
#768=ORIENTED_EDGE('',*,*,#592,.T.);
#769=ORIENTED_EDGE('',*,*,#593,.F.);
#770=ORIENTED_EDGE('',*,*,#563,.F.);
#771=ORIENTED_EDGE('',*,*,#572,.F.);
#772=ORIENTED_EDGE('',*,*,#561,.T.);
#773=ORIENTED_EDGE('',*,*,#594,.F.);
#774=ORIENTED_EDGE('',*,*,#595,.F.);
#775=ORIENTED_EDGE('',*,*,#573,.F.);
#776=ORIENTED_EDGE('',*,*,#595,.T.);
#777=ORIENTED_EDGE('',*,*,#596,.F.);
#778=ORIENTED_EDGE('',*,*,#592,.F.);
#779=ORIENTED_EDGE('',*,*,#580,.F.);
#780=ORIENTED_EDGE('',*,*,#597,.F.);
#781=ORIENTED_EDGE('',*,*,#586,.F.);
#782=ORIENTED_EDGE('',*,*,#598,.F.);
#783=ORIENTED_EDGE('',*,*,#596,.T.);
#784=ORIENTED_EDGE('',*,*,#594,.T.);
#785=ORIENTED_EDGE('',*,*,#560,.T.);
#786=ORIENTED_EDGE('',*,*,#567,.T.);
#787=ORIENTED_EDGE('',*,*,#564,.T.);
#788=ORIENTED_EDGE('',*,*,#593,.T.);
#789=ORIENTED_EDGE('',*,*,#597,.T.);
#790=ORIENTED_EDGE('',*,*,#579,.F.);
#791=ORIENTED_EDGE('',*,*,#599,.F.);
#792=ORIENTED_EDGE('',*,*,#587,.F.);
#793=ORIENTED_EDGE('',*,*,#598,.T.);
#794=ORIENTED_EDGE('',*,*,#585,.F.);
#795=ORIENTED_EDGE('',*,*,#600,.T.);
#796=ORIENTED_EDGE('',*,*,#574,.F.);
#797=ORIENTED_EDGE('',*,*,#588,.F.);
#798=ORIENTED_EDGE('',*,*,#599,.T.);
#799=ORIENTED_EDGE('',*,*,#578,.F.);
#800=ORIENTED_EDGE('',*,*,#591,.F.);
#801=ORIENTED_EDGE('',*,*,#584,.F.);
#802=ORIENTED_EDGE('',*,*,#590,.T.);
#803=ORIENTED_EDGE('',*,*,#575,.F.);
#804=ORIENTED_EDGE('',*,*,#600,.F.);
#805=ORIENTED_EDGE('',*,*,#582,.F.);
#806=ORIENTED_EDGE('',*,*,#601,.T.);
#807=ORIENTED_EDGE('',*,*,#555,.F.);
#808=ORIENTED_EDGE('',*,*,#601,.F.);
#809=ORIENTED_EDGE('',*,*,#602,.F.);
#810=ORIENTED_EDGE('',*,*,#603,.T.);
#811=ORIENTED_EDGE('',*,*,#604,.F.);
#812=ORIENTED_EDGE('',*,*,#605,.F.);
#813=ORIENTED_EDGE('',*,*,#606,.F.);
#814=ORIENTED_EDGE('',*,*,#607,.T.);
#815=ORIENTED_EDGE('',*,*,#608,.F.);
#816=ORIENTED_EDGE('',*,*,#609,.F.);
#817=ORIENTED_EDGE('',*,*,#610,.F.);
#818=ORIENTED_EDGE('',*,*,#611,.T.);
#819=ORIENTED_EDGE('',*,*,#612,.F.);
#820=ORIENTED_EDGE('',*,*,#613,.F.);
#821=ORIENTED_EDGE('',*,*,#614,.F.);
#822=ORIENTED_EDGE('',*,*,#615,.T.);
#823=ORIENTED_EDGE('',*,*,#616,.F.);
#824=ORIENTED_EDGE('',*,*,#617,.F.);
#825=ORIENTED_EDGE('',*,*,#618,.F.);
#826=ORIENTED_EDGE('',*,*,#619,.T.);
#827=ORIENTED_EDGE('',*,*,#620,.F.);
#828=ORIENTED_EDGE('',*,*,#603,.F.);
#829=ORIENTED_EDGE('',*,*,#602,.T.);
#830=ORIENTED_EDGE('',*,*,#539,.T.);
#831=ORIENTED_EDGE('',*,*,#621,.F.);
#832=ORIENTED_EDGE('',*,*,#622,.T.);
#833=ORIENTED_EDGE('',*,*,#623,.F.);
#834=ORIENTED_EDGE('',*,*,#607,.F.);
#835=ORIENTED_EDGE('',*,*,#624,.F.);
#836=ORIENTED_EDGE('',*,*,#609,.T.);
#837=ORIENTED_EDGE('',*,*,#625,.F.);
#838=ORIENTED_EDGE('',*,*,#626,.F.);
#839=ORIENTED_EDGE('',*,*,#627,.F.);
#840=ORIENTED_EDGE('',*,*,#626,.T.);
#841=ORIENTED_EDGE('',*,*,#628,.F.);
#842=ORIENTED_EDGE('',*,*,#622,.F.);
#843=ORIENTED_EDGE('',*,*,#623,.T.);
#844=ORIENTED_EDGE('',*,*,#628,.T.);
#845=ORIENTED_EDGE('',*,*,#625,.T.);
#846=ORIENTED_EDGE('',*,*,#608,.T.);
#847=ORIENTED_EDGE('',*,*,#629,.F.);
#848=ORIENTED_EDGE('',*,*,#630,.T.);
#849=ORIENTED_EDGE('',*,*,#631,.F.);
#850=ORIENTED_EDGE('',*,*,#615,.F.);
#851=ORIENTED_EDGE('',*,*,#632,.F.);
#852=ORIENTED_EDGE('',*,*,#617,.T.);
#853=ORIENTED_EDGE('',*,*,#633,.F.);
#854=ORIENTED_EDGE('',*,*,#634,.F.);
#855=ORIENTED_EDGE('',*,*,#635,.F.);
#856=ORIENTED_EDGE('',*,*,#634,.T.);
#857=ORIENTED_EDGE('',*,*,#636,.F.);
#858=ORIENTED_EDGE('',*,*,#630,.F.);
#859=ORIENTED_EDGE('',*,*,#631,.T.);
#860=ORIENTED_EDGE('',*,*,#636,.T.);
#861=ORIENTED_EDGE('',*,*,#633,.T.);
#862=ORIENTED_EDGE('',*,*,#616,.T.);
#863=ORIENTED_EDGE('',*,*,#637,.F.);
#864=ORIENTED_EDGE('',*,*,#638,.T.);
#865=ORIENTED_EDGE('',*,*,#639,.F.);
#866=ORIENTED_EDGE('',*,*,#619,.F.);
#867=ORIENTED_EDGE('',*,*,#640,.F.);
#868=ORIENTED_EDGE('',*,*,#605,.T.);
#869=ORIENTED_EDGE('',*,*,#641,.F.);
#870=ORIENTED_EDGE('',*,*,#642,.F.);
#871=ORIENTED_EDGE('',*,*,#643,.F.);
#872=ORIENTED_EDGE('',*,*,#642,.T.);
#873=ORIENTED_EDGE('',*,*,#644,.F.);
#874=ORIENTED_EDGE('',*,*,#638,.F.);
#875=ORIENTED_EDGE('',*,*,#639,.T.);
#876=ORIENTED_EDGE('',*,*,#644,.T.);
#877=ORIENTED_EDGE('',*,*,#641,.T.);
#878=ORIENTED_EDGE('',*,*,#604,.T.);
#879=ORIENTED_EDGE('',*,*,#620,.T.);
#880=ORIENTED_EDGE('',*,*,#645,.F.);
#881=ORIENTED_EDGE('',*,*,#646,.T.);
#882=ORIENTED_EDGE('',*,*,#647,.F.);
#883=ORIENTED_EDGE('',*,*,#611,.F.);
#884=ORIENTED_EDGE('',*,*,#648,.F.);
#885=ORIENTED_EDGE('',*,*,#649,.T.);
#886=ORIENTED_EDGE('',*,*,#650,.F.);
#887=ORIENTED_EDGE('',*,*,#646,.F.);
#888=ORIENTED_EDGE('',*,*,#651,.F.);
#889=ORIENTED_EDGE('',*,*,#613,.T.);
#890=ORIENTED_EDGE('',*,*,#652,.F.);
#891=ORIENTED_EDGE('',*,*,#649,.F.);
#892=ORIENTED_EDGE('',*,*,#650,.T.);
#893=ORIENTED_EDGE('',*,*,#652,.T.);
#894=ORIENTED_EDGE('',*,*,#612,.T.);
#895=ORIENTED_EDGE('',*,*,#647,.T.);
#896=ORIENTED_EDGE('',*,*,#653,.F.);
#897=ORIENTED_EDGE('',*,*,#654,.T.);
#898=ORIENTED_EDGE('',*,*,#655,.F.);
#899=ORIENTED_EDGE('',*,*,#654,.F.);
#900=ORIENTED_EDGE('',*,*,#653,.T.);
#901=ORIENTED_EDGE('',*,*,#614,.T.);
#902=ORIENTED_EDGE('',*,*,#651,.T.);
#903=ORIENTED_EDGE('',*,*,#648,.T.);
#904=ORIENTED_EDGE('',*,*,#645,.T.);
#905=ORIENTED_EDGE('',*,*,#610,.T.);
#906=ORIENTED_EDGE('',*,*,#624,.T.);
#907=ORIENTED_EDGE('',*,*,#627,.T.);
#908=ORIENTED_EDGE('',*,*,#621,.T.);
#909=ORIENTED_EDGE('',*,*,#606,.T.);
#910=ORIENTED_EDGE('',*,*,#640,.T.);
#911=ORIENTED_EDGE('',*,*,#643,.T.);
#912=ORIENTED_EDGE('',*,*,#637,.T.);
#913=ORIENTED_EDGE('',*,*,#618,.T.);
#914=ORIENTED_EDGE('',*,*,#632,.T.);
#915=ORIENTED_EDGE('',*,*,#635,.T.);
#916=ORIENTED_EDGE('',*,*,#629,.T.);
#917=ORIENTED_EDGE('',*,*,#556,.T.);
#918=ORIENTED_EDGE('',*,*,#655,.T.);
#919=ORIENTED_EDGE('',*,*,#656,.F.);
#920=ORIENTED_EDGE('',*,*,#657,.T.);
#921=ORIENTED_EDGE('',*,*,#658,.F.);
#922=ORIENTED_EDGE('',*,*,#657,.F.);
#923=ORIENTED_EDGE('',*,*,#659,.F.);
#924=ORIENTED_EDGE('',*,*,#660,.T.);
#925=ORIENTED_EDGE('',*,*,#661,.F.);
#926=ORIENTED_EDGE('',*,*,#662,.F.);
#927=ORIENTED_EDGE('',*,*,#663,.F.);
#928=ORIENTED_EDGE('',*,*,#662,.T.);
#929=ORIENTED_EDGE('',*,*,#664,.F.);
#930=ORIENTED_EDGE('',*,*,#665,.F.);
#931=ORIENTED_EDGE('',*,*,#666,.F.);
#932=ORIENTED_EDGE('',*,*,#665,.T.);
#933=ORIENTED_EDGE('',*,*,#667,.F.);
#934=ORIENTED_EDGE('',*,*,#668,.F.);
#935=ORIENTED_EDGE('',*,*,#669,.F.);
#936=ORIENTED_EDGE('',*,*,#668,.T.);
#937=ORIENTED_EDGE('',*,*,#670,.F.);
#938=ORIENTED_EDGE('',*,*,#671,.F.);
#939=ORIENTED_EDGE('',*,*,#672,.F.);
#940=ORIENTED_EDGE('',*,*,#671,.T.);
#941=ORIENTED_EDGE('',*,*,#673,.F.);
#942=ORIENTED_EDGE('',*,*,#674,.F.);
#943=ORIENTED_EDGE('',*,*,#675,.F.);
#944=ORIENTED_EDGE('',*,*,#674,.T.);
#945=ORIENTED_EDGE('',*,*,#676,.F.);
#946=ORIENTED_EDGE('',*,*,#660,.F.);
#947=ORIENTED_EDGE('',*,*,#676,.T.);
#948=ORIENTED_EDGE('',*,*,#673,.T.);
#949=ORIENTED_EDGE('',*,*,#670,.T.);
#950=ORIENTED_EDGE('',*,*,#667,.T.);
#951=ORIENTED_EDGE('',*,*,#664,.T.);
#952=ORIENTED_EDGE('',*,*,#661,.T.);
#953=ORIENTED_EDGE('',*,*,#656,.T.);
#954=ORIENTED_EDGE('',*,*,#675,.T.);
#955=ORIENTED_EDGE('',*,*,#659,.T.);
#956=ORIENTED_EDGE('',*,*,#663,.T.);
#957=ORIENTED_EDGE('',*,*,#666,.T.);
#958=ORIENTED_EDGE('',*,*,#669,.T.);
#959=ORIENTED_EDGE('',*,*,#672,.T.);
#960=ORIENTED_EDGE('',*,*,#658,.T.);
#961=B_SPLINE_SURFACE_WITH_KNOTS('',3,3,((#1454,#1455,#1456,#1457,#1458,
#1459,#1460,#1461,#1462,#1463,#1464,#1465,#1466,#1467),(#1468,#1469,#1470,
#1471,#1472,#1473,#1474,#1475,#1476,#1477,#1478,#1479,#1480,#1481),(#1482,
#1483,#1484,#1485,#1486,#1487,#1488,#1489,#1490,#1491,#1492,#1493,#1494,
#1495),(#1496,#1497,#1498,#1499,#1500,#1501,#1502,#1503,#1504,#1505,#1506,
#1507,#1508,#1509),(#1510,#1511,#1512,#1513,#1514,#1515,#1516,#1517,#1518,
#1519,#1520,#1521,#1522,#1523),(#1524,#1525,#1526,#1527,#1528,#1529,#1530,
#1531,#1532,#1533,#1534,#1535,#1536,#1537),(#1538,#1539,#1540,#1541,#1542,
#1543,#1544,#1545,#1546,#1547,#1548,#1549,#1550,#1551)),.UNSPECIFIED.,.F.,
 .T.,.F.,(4,1,1,1,4),(4,1,1,1,1,1,1,1,1,1,1,4),(0.,0.285714285714286,0.571428571428571,
0.714285714285714,1.),(-3.14159265358979,-2.69279370307697,-2.24399475256414,
-1.79519580205131,-1.34639685153848,-0.448798950512828,0.448798950512828,
0.897597901025655,1.34639685153848,2.24399475256414,2.69279370307697,3.14159265358979),
 .UNSPECIFIED.);
#962=ADVANCED_FACE('',(#311),#961,.T.);
#963=ADVANCED_FACE('',(#312),#295,.T.);
#964=ADVANCED_FACE('',(#313),#29,.T.);
#965=ADVANCED_FACE('',(#314),#26,.T.);
#966=ADVANCED_FACE('',(#315),#296,.T.);
#967=ADVANCED_FACE('',(#316),#30,.F.);
#968=ADVANCED_FACE('',(#317),#27,.T.);
#969=ADVANCED_FACE('',(#318),#297,.T.);
#970=ADVANCED_FACE('',(#319),#31,.F.);
#971=ADVANCED_FACE('',(#320),#28,.T.);
#972=ADVANCED_FACE('',(#321,#17),#32,.F.);
#973=ADVANCED_FACE('',(#322),#298,.T.);
#974=ADVANCED_FACE('',(#323),#299,.F.);
#975=ADVANCED_FACE('',(#324),#300,.F.);
#976=ADVANCED_FACE('',(#325),#301,.T.);
#977=ADVANCED_FACE('',(#326,#18),#33,.F.);
#978=ADVANCED_FACE('',(#327,#19),#34,.F.);
#979=ADVANCED_FACE('',(#328,#20),#35,.F.);
#980=ADVANCED_FACE('',(#329),#36,.T.);
#981=ADVANCED_FACE('',(#330),#37,.T.);
#982=ADVANCED_FACE('',(#331),#302,.F.);
#983=ADVANCED_FACE('',(#332),#303,.F.);
#984=ADVANCED_FACE('',(#333),#304,.T.);
#985=ADVANCED_FACE('',(#334),#38,.F.);
#986=ADVANCED_FACE('',(#335),#39,.T.);
#987=ADVANCED_FACE('',(#336),#40,.T.);
#988=ADVANCED_FACE('',(#337),#305,.T.);
#989=ADVANCED_FACE('',(#338),#306,.T.);
#990=ADVANCED_FACE('',(#339),#307,.T.);
#991=ADVANCED_FACE('',(#340),#308,.T.);
#992=ADVANCED_FACE('',(#341,#21),#41,.T.);
#993=ADVANCED_FACE('',(#342),#42,.T.);
#994=ADVANCED_FACE('',(#343),#43,.T.);
#995=ADVANCED_FACE('',(#344),#44,.T.);
#996=ADVANCED_FACE('',(#345),#45,.T.);
#997=ADVANCED_FACE('',(#346),#46,.T.);
#998=ADVANCED_FACE('',(#347),#47,.T.);
#999=ADVANCED_FACE('',(#348),#48,.T.);
#1000=ADVANCED_FACE('',(#349),#49,.T.);
#1001=ADVANCED_FACE('',(#350),#50,.T.);
#1002=ADVANCED_FACE('',(#351),#51,.T.);
#1003=ADVANCED_FACE('',(#352),#52,.T.);
#1004=ADVANCED_FACE('',(#353),#53,.T.);
#1005=ADVANCED_FACE('',(#354),#54,.T.);
#1006=ADVANCED_FACE('',(#355),#55,.T.);
#1007=ADVANCED_FACE('',(#356),#56,.T.);
#1008=ADVANCED_FACE('',(#357),#57,.T.);
#1009=ADVANCED_FACE('',(#358),#309,.T.);
#1010=ADVANCED_FACE('',(#359,#22),#58,.T.);
#1011=ADVANCED_FACE('',(#360,#23),#59,.T.);
#1012=ADVANCED_FACE('',(#361),#310,.F.);
#1013=ADVANCED_FACE('',(#362),#60,.T.);
#1014=ADVANCED_FACE('',(#363),#61,.T.);
#1015=ADVANCED_FACE('',(#364),#62,.T.);
#1016=ADVANCED_FACE('',(#365),#63,.T.);
#1017=ADVANCED_FACE('',(#366),#64,.T.);
#1018=ADVANCED_FACE('',(#367),#65,.T.);
#1019=ADVANCED_FACE('',(#368,#24),#66,.T.);
#1020=ADVANCED_FACE('',(#369,#25),#67,.F.);
#1021=CLOSED_SHELL('',(#962,#963,#964,#965,#966,#967,#968,#969,#970,#971,
#972,#973,#974,#975,#976,#977,#978,#979,#980,#981,#982,#983,#984,#985,#986,
#987,#988,#989,#990,#991,#992,#993,#994,#995,#996,#997,#998,#999,#1000,
#1001,#1002,#1003,#1004,#1005,#1006,#1007,#1008,#1009,#1010,#1011));
#1022=CLOSED_SHELL('',(#1012,#1013,#1014,#1015,#1016,#1017,#1018,#1019,
#1020));
#1023=DERIVED_UNIT_ELEMENT(#1025,1.);
#1024=DERIVED_UNIT_ELEMENT(#1883,-3.);
#1025=(
MASS_UNIT()
NAMED_UNIT(*)
SI_UNIT(.KILO.,.GRAM.)
);
#1026=DERIVED_UNIT((#1023,#1024));
#1027=MEASURE_REPRESENTATION_ITEM('density measure',
POSITIVE_RATIO_MEASURE(7850.),#1026);
#1028=PROPERTY_DEFINITION_REPRESENTATION(#1033,#1030);
#1029=PROPERTY_DEFINITION_REPRESENTATION(#1034,#1031);
#1030=REPRESENTATION('material name',(#1032),#1880);
#1031=REPRESENTATION('density',(#1027),#1880);
#1032=DESCRIPTIVE_REPRESENTATION_ITEM('Steel','Steel');
#1033=PROPERTY_DEFINITION('material property','material name',#1890);
#1034=PROPERTY_DEFINITION('material property','density of part',#1890);
#1035=AXIS2_PLACEMENT_3D('',#1453,#1145,#1146);
#1036=AXIS2_PLACEMENT_3D('',#1589,#1147,#1148);
#1037=AXIS2_PLACEMENT_3D('',#1592,#1150,#1151);
#1038=AXIS2_PLACEMENT_3D('',#1593,#1152,#1153);
#1039=AXIS2_PLACEMENT_3D('',#1594,#1154,#1155);
#1040=AXIS2_PLACEMENT_3D('',#1596,#1156,#1157);
#1041=AXIS2_PLACEMENT_3D('',#1598,#1158,#1159);
#1042=AXIS2_PLACEMENT_3D('',#1600,#1160,#1161);
#1043=AXIS2_PLACEMENT_3D('',#1601,#1162,#1163);
#1044=AXIS2_PLACEMENT_3D('',#1602,#1164,#1165);
#1045=AXIS2_PLACEMENT_3D('',#1605,#1167,#1168);
#1046=AXIS2_PLACEMENT_3D('',#1606,#1169,#1170);
#1047=AXIS2_PLACEMENT_3D('',#1607,#1171,#1172);
#1048=AXIS2_PLACEMENT_3D('',#1609,#1173,#1174);
#1049=AXIS2_PLACEMENT_3D('',#1611,#1175,#1176);
#1050=AXIS2_PLACEMENT_3D('',#1613,#1177,#1178);
#1051=AXIS2_PLACEMENT_3D('',#1614,#1179,#1180);
#1052=AXIS2_PLACEMENT_3D('',#1615,#1181,#1182);
#1053=AXIS2_PLACEMENT_3D('',#1618,#1184,#1185);
#1054=AXIS2_PLACEMENT_3D('',#1619,#1186,#1187);
#1055=AXIS2_PLACEMENT_3D('',#1620,#1188,#1189);
#1056=AXIS2_PLACEMENT_3D('',#1622,#1190,#1191);
#1057=AXIS2_PLACEMENT_3D('',#1624,#1192,#1193);
#1058=AXIS2_PLACEMENT_3D('',#1625,#1194,#1195);
#1059=AXIS2_PLACEMENT_3D('',#1626,#1196,#1197);
#1060=AXIS2_PLACEMENT_3D('',#1628,#1198,#1199);
#1061=AXIS2_PLACEMENT_3D('',#1629,#1200,#1201);
#1062=AXIS2_PLACEMENT_3D('',#1631,#1202,#1203);
#1063=AXIS2_PLACEMENT_3D('',#1633,#1205,#1206);
#1064=AXIS2_PLACEMENT_3D('',#1636,#1207,#1208);
#1065=AXIS2_PLACEMENT_3D('',#1640,#1210,#1211);
#1066=AXIS2_PLACEMENT_3D('',#1642,#1213,#1214);
#1067=AXIS2_PLACEMENT_3D('',#1645,#1215,#1216);
#1068=AXIS2_PLACEMENT_3D('',#1649,#1218,#1219);
#1069=AXIS2_PLACEMENT_3D('',#1651,#1221,#1222);
#1070=AXIS2_PLACEMENT_3D('',#1653,#1223,#1224);
#1071=AXIS2_PLACEMENT_3D('',#1654,#1225,#1226);
#1072=AXIS2_PLACEMENT_3D('',#1656,#1227,#1228);
#1073=AXIS2_PLACEMENT_3D('',#1660,#1230,#1231);
#1074=AXIS2_PLACEMENT_3D('',#1662,#1233,#1234);
#1075=AXIS2_PLACEMENT_3D('',#1664,#1235,#1236);
#1076=AXIS2_PLACEMENT_3D('',#1666,#1237,#1238);
#1077=AXIS2_PLACEMENT_3D('',#1670,#1240,#1241);
#1078=AXIS2_PLACEMENT_3D('',#1672,#1243,#1244);
#1079=AXIS2_PLACEMENT_3D('',#1676,#1246,#1247);
#1080=AXIS2_PLACEMENT_3D('',#1680,#1249,#1250);
#1081=AXIS2_PLACEMENT_3D('',#1681,#1251,#1252);
#1082=AXIS2_PLACEMENT_3D('',#1682,#1253,#1254);
#1083=AXIS2_PLACEMENT_3D('',#1684,#1255,#1256);
#1084=AXIS2_PLACEMENT_3D('',#1688,#1258,#1259);
#1085=AXIS2_PLACEMENT_3D('',#1692,#1261,#1262);
#1086=AXIS2_PLACEMENT_3D('',#1696,#1264,#1265);
#1087=AXIS2_PLACEMENT_3D('',#1698,#1267,#1268);
#1088=AXIS2_PLACEMENT_3D('',#1700,#1270,#1271);
#1089=AXIS2_PLACEMENT_3D('',#1702,#1273,#1274);
#1090=AXIS2_PLACEMENT_3D('',#1705,#1276,#1277);
#1091=AXIS2_PLACEMENT_3D('',#1706,#1278,#1279);
#1092=AXIS2_PLACEMENT_3D('',#1708,#1280,#1281);
#1093=AXIS2_PLACEMENT_3D('',#1710,#1283,#1284);
#1094=AXIS2_PLACEMENT_3D('',#1711,#1285,#1286);
#1095=AXIS2_PLACEMENT_3D('',#1714,#1289,#1290);
#1096=AXIS2_PLACEMENT_3D('',#1715,#1291,#1292);
#1097=AXIS2_PLACEMENT_3D('',#1717,#1294,#1295);
#1098=AXIS2_PLACEMENT_3D('',#1719,#1297,#1298);
#1099=AXIS2_PLACEMENT_3D('',#1720,#1299,#1300);
#1100=AXIS2_PLACEMENT_3D('',#1721,#1301,#1302);
#1101=AXIS2_PLACEMENT_3D('',#1723,#1304,#1305);
#1102=AXIS2_PLACEMENT_3D('',#1725,#1306,#1307);
#1103=AXIS2_PLACEMENT_3D('',#1729,#1309,#1310);
#1104=AXIS2_PLACEMENT_3D('',#1733,#1312,#1313);
#1105=AXIS2_PLACEMENT_3D('',#1737,#1315,#1316);
#1106=AXIS2_PLACEMENT_3D('',#1741,#1318,#1319);
#1107=AXIS2_PLACEMENT_3D('',#1745,#1321,#1322);
#1108=AXIS2_PLACEMENT_3D('',#1749,#1324,#1325);
#1109=AXIS2_PLACEMENT_3D('',#1753,#1327,#1328);
#1110=AXIS2_PLACEMENT_3D('',#1757,#1330,#1331);
#1111=AXIS2_PLACEMENT_3D('',#1760,#1333,#1334);
#1112=AXIS2_PLACEMENT_3D('',#1761,#1335,#1336);
#1113=AXIS2_PLACEMENT_3D('',#1762,#1337,#1338);
#1114=AXIS2_PLACEMENT_3D('',#1768,#1342,#1343);
#1115=AXIS2_PLACEMENT_3D('',#1774,#1347,#1348);
#1116=AXIS2_PLACEMENT_3D('',#1777,#1351,#1352);
#1117=AXIS2_PLACEMENT_3D('',#1778,#1353,#1354);
#1118=AXIS2_PLACEMENT_3D('',#1784,#1358,#1359);
#1119=AXIS2_PLACEMENT_3D('',#1790,#1363,#1364);
#1120=AXIS2_PLACEMENT_3D('',#1793,#1367,#1368);
#1121=AXIS2_PLACEMENT_3D('',#1794,#1369,#1370);
#1122=AXIS2_PLACEMENT_3D('',#1800,#1374,#1375);
#1123=AXIS2_PLACEMENT_3D('',#1806,#1379,#1380);
#1124=AXIS2_PLACEMENT_3D('',#1809,#1383,#1384);
#1125=AXIS2_PLACEMENT_3D('',#1810,#1385,#1386);
#1126=AXIS2_PLACEMENT_3D('',#1816,#1390,#1391);
#1127=AXIS2_PLACEMENT_3D('',#1822,#1395,#1396);
#1128=AXIS2_PLACEMENT_3D('',#1825,#1399,#1400);
#1129=AXIS2_PLACEMENT_3D('',#1826,#1401,#1402);
#1130=AXIS2_PLACEMENT_3D('',#1828,#1403,#1404);
#1131=AXIS2_PLACEMENT_3D('',#1831,#1406,#1407);
#1132=AXIS2_PLACEMENT_3D('',#1832,#1408,#1409);
#1133=AXIS2_PLACEMENT_3D('',#1833,#1410,#1411);
#1134=AXIS2_PLACEMENT_3D('',#1834,#1412,#1413);
#1135=AXIS2_PLACEMENT_3D('',#1836,#1414,#1415);
#1136=AXIS2_PLACEMENT_3D('',#1839,#1417,#1418);
#1137=AXIS2_PLACEMENT_3D('',#1840,#1419,#1420);
#1138=AXIS2_PLACEMENT_3D('',#1849,#1425,#1426);
#1139=AXIS2_PLACEMENT_3D('',#1855,#1430,#1431);
#1140=AXIS2_PLACEMENT_3D('',#1861,#1435,#1436);
#1141=AXIS2_PLACEMENT_3D('',#1867,#1440,#1441);
#1142=AXIS2_PLACEMENT_3D('',#1873,#1445,#1446);
#1143=AXIS2_PLACEMENT_3D('',#1876,#1449,#1450);
#1144=AXIS2_PLACEMENT_3D('',#1877,#1451,#1452);
#1145=DIRECTION('axis',(0.,0.,1.));
#1146=DIRECTION('refdir',(1.,0.,0.));
#1147=DIRECTION('center_axis',(0.,0.,1.));
#1148=DIRECTION('ref_axis',(1.,0.,0.));
#1149=DIRECTION('',(0.,0.,-1.));
#1150=DIRECTION('center_axis',(0.,0.,-1.));
#1151=DIRECTION('ref_axis',(1.,0.,0.));
#1152=DIRECTION('center_axis',(0.,0.,1.));
#1153=DIRECTION('ref_axis',(1.,0.,0.));
#1154=DIRECTION('center_axis',(0.,0.,-1.));
#1155=DIRECTION('ref_axis',(-1.,0.,0.));
#1156=DIRECTION('center_axis',(0.,0.,1.));
#1157=DIRECTION('ref_axis',(1.,0.,0.));
#1158=DIRECTION('center_axis',(-1.70803542250024E-16,-1.,0.));
#1159=DIRECTION('ref_axis',(1.,-1.70803542250024E-16,0.));
#1160=DIRECTION('center_axis',(0.,0.,-1.));
#1161=DIRECTION('ref_axis',(1.,0.,0.));
#1162=DIRECTION('center_axis',(0.,0.,-1.));
#1163=DIRECTION('ref_axis',(1.,0.,0.));
#1164=DIRECTION('center_axis',(0.,0.,-1.));
#1165=DIRECTION('ref_axis',(1.,0.,0.));
#1166=DIRECTION('',(0.,0.,1.));
#1167=DIRECTION('center_axis',(0.,0.,1.));
#1168=DIRECTION('ref_axis',(1.,0.,0.));
#1169=DIRECTION('center_axis',(0.,0.,1.));
#1170=DIRECTION('ref_axis',(1.,0.,0.));
#1171=DIRECTION('center_axis',(0.,0.,-1.));
#1172=DIRECTION('ref_axis',(-1.,0.,0.));
#1173=DIRECTION('center_axis',(0.,0.,1.));
#1174=DIRECTION('ref_axis',(1.,0.,0.));
#1175=DIRECTION('center_axis',(-1.70803542250024E-16,-1.,0.));
#1176=DIRECTION('ref_axis',(1.,-1.70803542250024E-16,0.));
#1177=DIRECTION('center_axis',(0.,0.,-1.));
#1178=DIRECTION('ref_axis',(1.,0.,0.));
#1179=DIRECTION('center_axis',(0.,0.,-1.));
#1180=DIRECTION('ref_axis',(1.,0.,0.));
#1181=DIRECTION('center_axis',(0.,0.,-1.));
#1182=DIRECTION('ref_axis',(1.,0.,0.));
#1183=DIRECTION('',(0.,0.,1.));
#1184=DIRECTION('center_axis',(0.,0.,1.));
#1185=DIRECTION('ref_axis',(1.,0.,0.));
#1186=DIRECTION('center_axis',(0.,0.,1.));
#1187=DIRECTION('ref_axis',(1.,0.,0.));
#1188=DIRECTION('center_axis',(0.,0.,1.));
#1189=DIRECTION('ref_axis',(1.,0.,0.));
#1190=DIRECTION('center_axis',(0.,0.,-1.));
#1191=DIRECTION('ref_axis',(1.,0.,0.));
#1192=DIRECTION('center_axis',(1.22464679914735E-16,-1.,0.));
#1193=DIRECTION('ref_axis',(-1.,-1.22464679914735E-16,0.));
#1194=DIRECTION('center_axis',(0.,0.,1.));
#1195=DIRECTION('ref_axis',(1.,0.,0.));
#1196=DIRECTION('center_axis',(0.,0.,1.));
#1197=DIRECTION('ref_axis',(1.,0.,0.));
#1198=DIRECTION('center_axis',(0.,0.,1.));
#1199=DIRECTION('ref_axis',(1.,0.,0.));
#1200=DIRECTION('center_axis',(0.,0.,1.));
#1201=DIRECTION('ref_axis',(1.,0.,0.));
#1202=DIRECTION('center_axis',(0.,0.,1.));
#1203=DIRECTION('ref_axis',(1.,0.,0.));
#1204=DIRECTION('',(0.,0.,-1.));
#1205=DIRECTION('center_axis',(0.,0.,-1.));
#1206=DIRECTION('ref_axis',(-0.521198007050625,0.853435784020366,0.));
#1207=DIRECTION('center_axis',(0.,0.,-1.));
#1208=DIRECTION('ref_axis',(-0.521198007050625,0.853435784020366,0.));
#1209=DIRECTION('',(0.,0.,-1.));
#1210=DIRECTION('center_axis',(0.,0.,1.));
#1211=DIRECTION('ref_axis',(-0.521198007050625,0.853435784020366,0.));
#1212=DIRECTION('',(0.,0.,-1.));
#1213=DIRECTION('center_axis',(0.,0.,-1.));
#1214=DIRECTION('ref_axis',(0.192017612425203,-0.981391479746245,0.));
#1215=DIRECTION('center_axis',(0.,0.,-1.));
#1216=DIRECTION('ref_axis',(0.192017612425203,-0.981391479746245,0.));
#1217=DIRECTION('',(0.,0.,-1.));
#1218=DIRECTION('center_axis',(0.,0.,1.));
#1219=DIRECTION('ref_axis',(0.192017612425203,-0.981391479746245,0.));
#1220=DIRECTION('',(0.,0.,-1.));
#1221=DIRECTION('center_axis',(0.,0.,-1.));
#1222=DIRECTION('ref_axis',(-1.,-1.22464679914735E-16,0.));
#1223=DIRECTION('center_axis',(0.,0.,1.));
#1224=DIRECTION('ref_axis',(-1.,-1.22464679914735E-16,0.));
#1225=DIRECTION('center_axis',(0.,0.,-1.));
#1226=DIRECTION('ref_axis',(-1.,-1.22464679914735E-16,0.));
#1227=DIRECTION('center_axis',(0.,0.,1.));
#1228=DIRECTION('ref_axis',(-1.,-1.22464679914735E-16,0.));
#1229=DIRECTION('',(0.,0.,-1.));
#1230=DIRECTION('center_axis',(0.,0.,1.));
#1231=DIRECTION('ref_axis',(-1.,-1.22464679914735E-16,0.));
#1232=DIRECTION('',(0.,0.,1.));
#1233=DIRECTION('center_axis',(0.,0.,1.));
#1234=DIRECTION('ref_axis',(1.,0.,0.));
#1235=DIRECTION('center_axis',(0.,0.,-1.));
#1236=DIRECTION('ref_axis',(-0.192017612425203,0.981391479746245,0.));
#1237=DIRECTION('center_axis',(0.,0.,1.));
#1238=DIRECTION('ref_axis',(1.,0.,0.));
#1239=DIRECTION('',(0.573576436351046,-0.819152044288992,0.));
#1240=DIRECTION('center_axis',(0.,0.,-1.));
#1241=DIRECTION('ref_axis',(1.,0.,0.));
#1242=DIRECTION('',(-0.573576436351046,0.819152044288992,0.));
#1243=DIRECTION('center_axis',(0.,0.,1.));
#1244=DIRECTION('ref_axis',(1.,0.,0.));
#1245=DIRECTION('',(-0.573576436351046,0.819152044288992,0.));
#1246=DIRECTION('center_axis',(0.,0.,-1.));
#1247=DIRECTION('ref_axis',(1.,0.,0.));
#1248=DIRECTION('',(0.573576436351046,-0.819152044288992,0.));
#1249=DIRECTION('center_axis',(0.,0.,1.));
#1250=DIRECTION('ref_axis',(1.,0.,0.));
#1251=DIRECTION('center_axis',(0.,0.,-1.));
#1252=DIRECTION('ref_axis',(0.521198007050625,-0.853435784020366,0.));
#1253=DIRECTION('center_axis',(0.,0.,1.));
#1254=DIRECTION('ref_axis',(1.,0.,0.));
#1255=DIRECTION('center_axis',(0.,0.,-1.));
#1256=DIRECTION('ref_axis',(1.,0.,0.));
#1257=DIRECTION('',(0.573576436351046,-0.819152044288992,0.));
#1258=DIRECTION('center_axis',(0.,0.,1.));
#1259=DIRECTION('ref_axis',(1.,0.,0.));
#1260=DIRECTION('',(-0.573576436351046,0.819152044288992,0.));
#1261=DIRECTION('center_axis',(0.,0.,1.));
#1262=DIRECTION('ref_axis',(1.,0.,0.));
#1263=DIRECTION('',(-0.573576436351046,0.819152044288992,0.));
#1264=DIRECTION('center_axis',(0.,0.,1.));
#1265=DIRECTION('ref_axis',(1.,0.,0.));
#1266=DIRECTION('',(0.573576436351046,-0.819152044288992,0.));
#1267=DIRECTION('center_axis',(-0.819152044288992,-0.573576436351046,0.));
#1268=DIRECTION('ref_axis',(-0.573576436351046,0.819152044288992,0.));
#1269=DIRECTION('',(0.,0.,-1.));
#1270=DIRECTION('center_axis',(-0.819152044288992,-0.573576436351046,0.));
#1271=DIRECTION('ref_axis',(-0.573576436351046,0.819152044288992,0.));
#1272=DIRECTION('',(0.,0.,-1.));
#1273=DIRECTION('center_axis',(0.,0.,-1.));
#1274=DIRECTION('ref_axis',(0.521198007050625,-0.853435784020366,0.));
#1275=DIRECTION('',(0.,0.,-1.));
#1276=DIRECTION('center_axis',(0.,0.,1.));
#1277=DIRECTION('ref_axis',(0.521198007050625,-0.853435784020366,0.));
#1278=DIRECTION('center_axis',(0.,0.,-1.));
#1279=DIRECTION('ref_axis',(-0.192017612425203,0.981391479746245,0.));
#1280=DIRECTION('center_axis',(0.,0.,1.));
#1281=DIRECTION('ref_axis',(-0.192017612425203,0.981391479746245,0.));
#1282=DIRECTION('',(0.,0.,-1.));
#1283=DIRECTION('center_axis',(0.,0.,-1.));
#1284=DIRECTION('ref_axis',(1.,0.,0.));
#1285=DIRECTION('center_axis',(0.,0.,-1.));
#1286=DIRECTION('ref_axis',(1.,0.,0.));
#1287=DIRECTION('',(0.,0.,-1.));
#1288=DIRECTION('',(0.,0.,1.));
#1289=DIRECTION('center_axis',(0.,0.,1.));
#1290=DIRECTION('ref_axis',(1.,0.,0.));
#1291=DIRECTION('center_axis',(0.819152044288992,0.573576436351046,0.));
#1292=DIRECTION('ref_axis',(0.573576436351046,-0.819152044288992,0.));
#1293=DIRECTION('',(0.,0.,-1.));
#1294=DIRECTION('center_axis',(0.819152044288992,0.573576436351046,0.));
#1295=DIRECTION('ref_axis',(0.573576436351046,-0.819152044288992,0.));
#1296=DIRECTION('',(0.,0.,-1.));
#1297=DIRECTION('center_axis',(0.,0.,-1.));
#1298=DIRECTION('ref_axis',(-0.573576436351046,0.819152044288992,0.));
#1299=DIRECTION('center_axis',(0.,0.,-1.));
#1300=DIRECTION('ref_axis',(1.,0.,0.));
#1301=DIRECTION('center_axis',(0.,0.,-1.));
#1302=DIRECTION('ref_axis',(1.,0.,0.));
#1303=DIRECTION('',(0.,0.,1.));
#1304=DIRECTION('center_axis',(0.,0.,1.));
#1305=DIRECTION('ref_axis',(1.,0.,0.));
#1306=DIRECTION('center_axis',(0.,0.,1.));
#1307=DIRECTION('ref_axis',(1.,0.,0.));
#1308=DIRECTION('',(0.,0.,-1.));
#1309=DIRECTION('center_axis',(0.,0.,-1.));
#1310=DIRECTION('ref_axis',(1.,0.,0.));
#1311=DIRECTION('',(0.,0.,1.));
#1312=DIRECTION('center_axis',(0.,0.,-1.));
#1313=DIRECTION('ref_axis',(1.,0.,0.));
#1314=DIRECTION('',(0.,0.,1.));
#1315=DIRECTION('center_axis',(0.,0.,-1.));
#1316=DIRECTION('ref_axis',(1.,0.,0.));
#1317=DIRECTION('',(0.,0.,1.));
#1318=DIRECTION('center_axis',(0.,0.,-1.));
#1319=DIRECTION('ref_axis',(1.,0.,0.));
#1320=DIRECTION('',(0.,0.,1.));
#1321=DIRECTION('center_axis',(0.,0.,-1.));
#1322=DIRECTION('ref_axis',(1.,0.,0.));
#1323=DIRECTION('',(0.,0.,1.));
#1324=DIRECTION('center_axis',(0.,0.,-1.));
#1325=DIRECTION('ref_axis',(1.,0.,0.));
#1326=DIRECTION('',(0.,0.,1.));
#1327=DIRECTION('center_axis',(0.,0.,-1.));
#1328=DIRECTION('ref_axis',(1.,0.,0.));
#1329=DIRECTION('',(0.,0.,1.));
#1330=DIRECTION('center_axis',(0.,0.,-1.));
#1331=DIRECTION('ref_axis',(1.,0.,0.));
#1332=DIRECTION('',(0.,0.,1.));
#1333=DIRECTION('center_axis',(0.,0.,-1.));
#1334=DIRECTION('ref_axis',(1.,0.,0.));
#1335=DIRECTION('center_axis',(0.,0.,1.));
#1336=DIRECTION('ref_axis',(1.,0.,0.));
#1337=DIRECTION('center_axis',(-1.,-2.8492485039489E-16,0.));
#1338=DIRECTION('ref_axis',(2.8492485039489E-16,-1.,0.));
#1339=DIRECTION('',(-2.8492485039489E-16,1.,0.));
#1340=DIRECTION('',(0.,0.,1.));
#1341=DIRECTION('',(2.8492485039489E-16,-1.,0.));
#1342=DIRECTION('center_axis',(1.,4.98618488191057E-16,0.));
#1343=DIRECTION('ref_axis',(-4.98618488191057E-16,1.,0.));
#1344=DIRECTION('',(4.98618488191057E-16,-1.,0.));
#1345=DIRECTION('',(-4.98618488191057E-16,1.,0.));
#1346=DIRECTION('',(0.,0.,1.));
#1347=DIRECTION('center_axis',(0.,-1.,0.));
#1348=DIRECTION('ref_axis',(1.,0.,0.));
#1349=DIRECTION('',(-1.,0.,0.));
#1350=DIRECTION('',(1.,0.,0.));
#1351=DIRECTION('center_axis',(0.,0.,1.));
#1352=DIRECTION('ref_axis',(1.,0.,0.));
#1353=DIRECTION('center_axis',(1.,0.,0.));
#1354=DIRECTION('ref_axis',(0.,1.,0.));
#1355=DIRECTION('',(0.,-1.,0.));
#1356=DIRECTION('',(0.,0.,1.));
#1357=DIRECTION('',(0.,1.,0.));
#1358=DIRECTION('center_axis',(-1.,-3.56156062993613E-16,0.));
#1359=DIRECTION('ref_axis',(3.56156062993613E-16,-1.,0.));
#1360=DIRECTION('',(-3.56156062993613E-16,1.,0.));
#1361=DIRECTION('',(3.56156062993613E-16,-1.,0.));
#1362=DIRECTION('',(0.,0.,1.));
#1363=DIRECTION('center_axis',(0.,1.,0.));
#1364=DIRECTION('ref_axis',(-1.,0.,0.));
#1365=DIRECTION('',(1.,0.,0.));
#1366=DIRECTION('',(-1.,0.,0.));
#1367=DIRECTION('center_axis',(0.,0.,1.));
#1368=DIRECTION('ref_axis',(1.,0.,0.));
#1369=DIRECTION('center_axis',(-3.56156062993613E-17,1.,0.));
#1370=DIRECTION('ref_axis',(-1.,-3.56156062993613E-17,0.));
#1371=DIRECTION('',(1.,3.56156062993613E-17,0.));
#1372=DIRECTION('',(0.,0.,1.));
#1373=DIRECTION('',(-1.,-3.56156062993613E-17,0.));
#1374=DIRECTION('center_axis',(1.78078031496806E-16,-1.,0.));
#1375=DIRECTION('ref_axis',(1.,1.78078031496806E-16,0.));
#1376=DIRECTION('',(-1.,-1.78078031496806E-16,0.));
#1377=DIRECTION('',(1.,1.78078031496806E-16,0.));
#1378=DIRECTION('',(0.,0.,1.));
#1379=DIRECTION('center_axis',(-1.,0.,0.));
#1380=DIRECTION('ref_axis',(0.,-1.,0.));
#1381=DIRECTION('',(0.,1.,0.));
#1382=DIRECTION('',(0.,-1.,0.));
#1383=DIRECTION('center_axis',(0.,0.,1.));
#1384=DIRECTION('ref_axis',(1.,0.,0.));
#1385=DIRECTION('center_axis',(1.42462425197445E-16,-1.,0.));
#1386=DIRECTION('ref_axis',(1.,1.42462425197445E-16,0.));
#1387=DIRECTION('',(-1.,-1.42462425197445E-16,0.));
#1388=DIRECTION('',(0.,0.,1.));
#1389=DIRECTION('',(1.,1.42462425197445E-16,0.));
#1390=DIRECTION('center_axis',(1.,0.,0.));
#1391=DIRECTION('ref_axis',(0.,1.,0.));
#1392=DIRECTION('',(0.,-1.,0.));
#1393=DIRECTION('',(0.,0.,1.));
#1394=DIRECTION('',(0.,1.,0.));
#1395=DIRECTION('center_axis',(0.,1.,0.));
#1396=DIRECTION('ref_axis',(-1.,0.,0.));
#1397=DIRECTION('',(1.,0.,0.));
#1398=DIRECTION('',(-1.,0.,0.));
#1399=DIRECTION('center_axis',(0.,0.,1.));
#1400=DIRECTION('ref_axis',(1.,0.,0.));
#1401=DIRECTION('center_axis',(0.,0.,1.));
#1402=DIRECTION('ref_axis',(1.,0.,0.));
#1403=DIRECTION('center_axis',(0.,0.,1.));
#1404=DIRECTION('ref_axis',(1.,0.,0.));
#1405=DIRECTION('',(0.,0.,-1.));
#1406=DIRECTION('center_axis',(0.,0.,-1.));
#1407=DIRECTION('ref_axis',(1.,0.,0.));
#1408=DIRECTION('center_axis',(0.,0.,1.));
#1409=DIRECTION('ref_axis',(1.,0.,0.));
#1410=DIRECTION('center_axis',(0.,0.,1.));
#1411=DIRECTION('ref_axis',(1.,0.,0.));
#1412=DIRECTION('center_axis',(0.,0.,1.));
#1413=DIRECTION('ref_axis',(1.,0.,0.));
#1414=DIRECTION('center_axis',(0.,0.,-1.));
#1415=DIRECTION('ref_axis',(1.,0.,0.));
#1416=DIRECTION('',(0.,0.,-1.));
#1417=DIRECTION('center_axis',(0.,0.,1.));
#1418=DIRECTION('ref_axis',(1.,0.,0.));
#1419=DIRECTION('center_axis',(0.5,0.866025403784438,0.));
#1420=DIRECTION('ref_axis',(-0.866025403784438,0.5,0.));
#1421=DIRECTION('',(0.866025403784438,-0.5,0.));
#1422=DIRECTION('',(0.,0.,1.));
#1423=DIRECTION('',(-0.866025403784438,0.5,0.));
#1424=DIRECTION('',(0.,0.,1.));
#1425=DIRECTION('center_axis',(1.,-3.20493781063927E-16,0.));
#1426=DIRECTION('ref_axis',(3.20493781063927E-16,1.,0.));
#1427=DIRECTION('',(-3.20493781063927E-16,-1.,0.));
#1428=DIRECTION('',(3.20493781063927E-16,1.,0.));
#1429=DIRECTION('',(0.,0.,1.));
#1430=DIRECTION('center_axis',(0.5,-0.866025403784439,0.));
#1431=DIRECTION('ref_axis',(0.866025403784439,0.5,0.));
#1432=DIRECTION('',(-0.866025403784439,-0.5,0.));
#1433=DIRECTION('',(0.866025403784439,0.5,0.));
#1434=DIRECTION('',(0.,0.,1.));
#1435=DIRECTION('center_axis',(-0.5,-0.866025403784439,0.));
#1436=DIRECTION('ref_axis',(0.866025403784439,-0.5,0.));
#1437=DIRECTION('',(-0.866025403784439,0.5,0.));
#1438=DIRECTION('',(0.866025403784439,-0.5,0.));
#1439=DIRECTION('',(0.,0.,1.));
#1440=DIRECTION('center_axis',(-1.,6.40987562127854E-16,0.));
#1441=DIRECTION('ref_axis',(-6.40987562127854E-16,-1.,0.));
#1442=DIRECTION('',(6.40987562127854E-16,1.,0.));
#1443=DIRECTION('',(-6.40987562127854E-16,-1.,0.));
#1444=DIRECTION('',(0.,0.,1.));
#1445=DIRECTION('center_axis',(-0.5,0.866025403784439,0.));
#1446=DIRECTION('ref_axis',(-0.866025403784439,-0.499999999999999,0.));
#1447=DIRECTION('',(0.866025403784439,0.499999999999999,0.));
#1448=DIRECTION('',(-0.866025403784439,-0.499999999999999,0.));
#1449=DIRECTION('center_axis',(0.,0.,1.));
#1450=DIRECTION('ref_axis',(1.,0.,0.));
#1451=DIRECTION('center_axis',(0.,0.,1.));
#1452=DIRECTION('ref_axis',(1.,0.,0.));
#1453=CARTESIAN_POINT('',(0.,0.,0.));
#1454=CARTESIAN_POINT('Ctrl Pts',(-0.5,-6.12323399573678E-17,46.));
#1455=CARTESIAN_POINT('Ctrl Pts',(-0.5,-0.0747998250854714,46.));
#1456=CARTESIAN_POINT('Ctrl Pts',(-0.465927504726684,-0.224206401019407,
46.));
#1457=CARTESIAN_POINT('Ctrl Pts',(-0.322327751112746,-0.404632705204183,
46.));
#1458=CARTESIAN_POINT('Ctrl Pts',(-0.115213322596364,-0.503455729359709,
46.));
#1459=CARTESIAN_POINT('Ctrl Pts',(0.19218572967455,-0.505735431070175,46.));
#1460=CARTESIAN_POINT('Ctrl Pts',(0.516103778042367,-0.24868760225583,46.));
#1461=CARTESIAN_POINT('Ctrl Pts',(0.51518834834943,0.165352677106674,46.));
#1462=CARTESIAN_POINT('Ctrl Pts',(0.321918859145172,0.4035751733916,46.));
#1463=CARTESIAN_POINT('Ctrl Pts',(0.0459504976665085,0.539535117056865,
46.));
#1464=CARTESIAN_POINT('Ctrl Pts',(-0.275115502669497,0.465761740580179,
46.));
#1465=CARTESIAN_POINT('Ctrl Pts',(-0.465667928554461,0.223756390579898,
46.));
#1466=CARTESIAN_POINT('Ctrl Pts',(-0.5,0.0747998250854714,46.));
#1467=CARTESIAN_POINT('Ctrl Pts',(-0.5,6.12323399573678E-17,46.));
#1468=CARTESIAN_POINT('Ctrl Pts',(-1.17343502970147,-1.43704345313129E-16,
46.));
#1469=CARTESIAN_POINT('Ctrl Pts',(-1.17343502970147,-0.174774916884986,
46.));
#1470=CARTESIAN_POINT('Ctrl Pts',(-1.09309526012221,-0.526209346719861,
46.));
#1471=CARTESIAN_POINT('Ctrl Pts',(-0.756302246469528,-0.948966134759495,
46.));
#1472=CARTESIAN_POINT('Ctrl Pts',(-0.269892609279574,-1.18126408949019,
46.));
#1473=CARTESIAN_POINT('Ctrl Pts',(0.450485221623556,-1.1865266364434,46.));
#1474=CARTESIAN_POINT('Ctrl Pts',(1.21083382567516,-0.583460041578879,46.));
#1475=CARTESIAN_POINT('Ctrl Pts',(1.20847344957719,0.388273526066173,46.));
#1476=CARTESIAN_POINT('Ctrl Pts',(0.755614008660005,0.946538283368233,46.));
#1477=CARTESIAN_POINT('Ctrl Pts',(0.107806119268275,1.26561431767048,46.));
#1478=CARTESIAN_POINT('Ctrl Pts',(-0.645812812820489,1.09248441988703,46.));
#1479=CARTESIAN_POINT('Ctrl Pts',(-1.09235669041821,0.525119850968756,46.));
#1480=CARTESIAN_POINT('Ctrl Pts',(-1.17343502970147,0.174774916884986,46.));
#1481=CARTESIAN_POINT('Ctrl Pts',(-1.17343502970147,1.43704345313129E-16,
46.));
#1482=CARTESIAN_POINT('Ctrl Pts',(-2.65066743095584,-3.24613138492421E-16,
45.8872843975929));
#1483=CARTESIAN_POINT('Ctrl Pts',(-2.65066743095584,-0.396633952843543,
45.8872843975929));
#1484=CARTESIAN_POINT('Ctrl Pts',(-2.47008410231882,-1.18858999636818,45.8872843975929));
#1485=CARTESIAN_POINT('Ctrl Pts',(-1.70878696600667,-2.14517415466768,45.8872843975929));
#1486=CARTESIAN_POINT('Ctrl Pts',(-0.610845832919091,-2.66902207611697,
45.8872843975929));
#1487=CARTESIAN_POINT('Ctrl Pts',(1.01890870491699,-2.68111834405785,45.8872843975929));
#1488=CARTESIAN_POINT('Ctrl Pts',(2.73608762668082,-1.31839814004952,45.8872843975929));
#1489=CARTESIAN_POINT('Ctrl Pts',(2.73126077106161,0.87656373125671,45.8872843975929));
#1490=CARTESIAN_POINT('Ctrl Pts',(1.70658582360207,2.1395611598414,45.8872843975929));
#1491=CARTESIAN_POINT('Ctrl Pts',(0.243603134872344,2.860330877705,45.8872843975929));
#1492=CARTESIAN_POINT('Ctrl Pts',(-1.4584606003707,2.46923268734882,45.8872843975929));
#1493=CARTESIAN_POINT('Ctrl Pts',(-2.4687239583401,1.18620845706464,45.8872843975929));
#1494=CARTESIAN_POINT('Ctrl Pts',(-2.65066743095584,0.396633952843543,45.8872843975929));
#1495=CARTESIAN_POINT('Ctrl Pts',(-2.65066743095584,3.86346300285949E-16,
45.8872843975929));
#1496=CARTESIAN_POINT('Ctrl Pts',(-4.26346971336149,-5.22124453772984E-16,
45.383864471622));
#1497=CARTESIAN_POINT('Ctrl Pts',(-4.26346971336149,-0.637919502039593,
45.383864471622));
#1498=CARTESIAN_POINT('Ctrl Pts',(-3.97298730400189,-1.91179081863374,45.3838644716221));
#1499=CARTESIAN_POINT('Ctrl Pts',(-2.74849108030548,-3.45036850357318,45.383864471622));
#1500=CARTESIAN_POINT('Ctrl Pts',(-0.982485492806511,-4.29297514816642,
45.383864471622));
#1501=CARTESIAN_POINT('Ctrl Pts',(1.63883164217536,-4.31242607083467,45.3838644716221));
#1502=CARTESIAN_POINT('Ctrl Pts',(4.40083990792722,-2.12056851334415,45.3838644716221));
#1503=CARTESIAN_POINT('Ctrl Pts',(4.39306323452218,1.40992308072201,45.383864471622));
#1504=CARTESIAN_POINT('Ctrl Pts',(2.74496717810312,3.4413435654596,45.3838644716221));
#1505=CARTESIAN_POINT('Ctrl Pts',(0.391821746653067,4.60066635883582,45.383864471622));
#1506=CARTESIAN_POINT('Ctrl Pts',(-2.34587226633648,3.97160433482904,45.383864471622));
#1507=CARTESIAN_POINT('Ctrl Pts',(-3.97079169872858,1.90795819543276,45.383864471622));
#1508=CARTESIAN_POINT('Ctrl Pts',(-4.26346971336149,0.637919502039593,45.383864471622));
#1509=CARTESIAN_POINT('Ctrl Pts',(-4.26346971336149,8.59575467189285E-16,
45.383864471622));
#1510=CARTESIAN_POINT('Ctrl Pts',(-5.28420019727869,-6.47127885765116E-16,
44.7105807491159));
#1511=CARTESIAN_POINT('Ctrl Pts',(-5.28420019727869,-0.790391176884812,
44.7105807491159));
#1512=CARTESIAN_POINT('Ctrl Pts',(-4.9240482393367,-2.36950718732524,44.710580749116));
#1513=CARTESIAN_POINT('Ctrl Pts',(-3.4064632683828,-4.27621573174541,44.7105807491159));
#1514=CARTESIAN_POINT('Ctrl Pts',(-1.21754080691709,-5.32067674175437,44.710580749116));
#1515=CARTESIAN_POINT('Ctrl Pts',(2.03100776183248,-5.34475551948828,44.7105807491159));
#1516=CARTESIAN_POINT('Ctrl Pts',(5.45432820470618,-2.6282017542023,44.710580749116));
#1517=CARTESIAN_POINT('Ctrl Pts',(5.4446196503425,1.74754727240263,44.710580749116));
#1518=CARTESIAN_POINT('Ctrl Pts',(3.4021853674405,4.26504796075176,44.7105807491159));
#1519=CARTESIAN_POINT('Ctrl Pts',(0.485617859644613,5.70192639694763,44.710580749116));
#1520=CARTESIAN_POINT('Ctrl Pts',(-2.90755519027663,4.92226087709381,44.710580749116));
#1521=CARTESIAN_POINT('Ctrl Pts',(-4.92128422793791,2.36474595452195,44.7105807491159));
#1522=CARTESIAN_POINT('Ctrl Pts',(-5.28420019727869,0.790391176884812,44.7105807491159));
#1523=CARTESIAN_POINT('Ctrl Pts',(-5.28420019727869,1.35332938346938E-15,
44.7105807491159));
#1524=CARTESIAN_POINT('Ctrl Pts',(-5.5,-6.73555739531044E-16,44.2693740118806));
#1525=CARTESIAN_POINT('Ctrl Pts',(-5.5,-0.82355315407761,44.2693740118806));
#1526=CARTESIAN_POINT('Ctrl Pts',(-5.12557105039075,-2.4662448774728,44.2693740118806));
#1527=CARTESIAN_POINT('Ctrl Pts',(-3.54576116894796,-4.45160086424323,44.2693740118806));
#1528=CARTESIAN_POINT('Ctrl Pts',(-1.26783463348875,-5.53828846588156,44.2693740118806));
#1529=CARTESIAN_POINT('Ctrl Pts',(2.11458169979388,-5.56345104183637,44.2693740118806));
#1530=CARTESIAN_POINT('Ctrl Pts',(5.67752831074385,-2.73573750748263,44.2693740118806));
#1531=CARTESIAN_POINT('Ctrl Pts',(5.66766630848292,1.81867143242167,44.2693740118806));
#1532=CARTESIAN_POINT('Ctrl Pts',(3.54099742885805,4.43991506119372,44.2693740118806));
#1533=CARTESIAN_POINT('Ctrl Pts',(0.505488524897977,5.93547864218497,44.2693740118806));
#1534=CARTESIAN_POINT('Ctrl Pts',(-3.02612111480738,5.12396500345321,44.2693740118806));
#1535=CARTESIAN_POINT('Ctrl Pts',(-5.12284249236846,2.46132747200164,44.2693740118806));
#1536=CARTESIAN_POINT('Ctrl Pts',(-5.5,0.823553154077611,44.2693740118806));
#1537=CARTESIAN_POINT('Ctrl Pts',(-5.5,1.62140157317895E-15,44.2693740118806));
#1538=CARTESIAN_POINT('Ctrl Pts',(-5.5,-6.73555739531044E-16,44.));
#1539=CARTESIAN_POINT('Ctrl Pts',(-5.5,-0.822798075940185,44.));
#1540=CARTESIAN_POINT('Ctrl Pts',(-5.12520255199352,-2.46627041121347,44.));
#1541=CARTESIAN_POINT('Ctrl Pts',(-3.54560526224021,-4.45095975724601,44.));
#1542=CARTESIAN_POINT('Ctrl Pts',(-1.26734654856001,-5.53801302295679,44.));
#1543=CARTESIAN_POINT('Ctrl Pts',(2.11404302642005,-5.56308974177193,44.));
#1544=CARTESIAN_POINT('Ctrl Pts',(5.67714155846602,-2.73556362481412,44.));
#1545=CARTESIAN_POINT('Ctrl Pts',(5.66707183184372,1.81887944817341,44.));
#1546=CARTESIAN_POINT('Ctrl Pts',(3.54110745059689,4.43932690730759,44.));
#1547=CARTESIAN_POINT('Ctrl Pts',(0.505455474331595,5.93488628762551,44.));
#1548=CARTESIAN_POINT('Ctrl Pts',(-3.02627052936446,5.12337914638197,44.));
#1549=CARTESIAN_POINT('Ctrl Pts',(-5.12234721409907,2.46132029637888,44.));
#1550=CARTESIAN_POINT('Ctrl Pts',(-5.5,0.822798075940186,44.));
#1551=CARTESIAN_POINT('Ctrl Pts',(-5.5,1.7689349146443E-15,44.));
#1552=CARTESIAN_POINT('',(-0.5,6.12323399573678E-17,46.));
#1553=CARTESIAN_POINT('',(-5.5,-6.73555739531044E-16,44.));
#1554=CARTESIAN_POINT('Ctrl Pts',(-0.5,-6.12323399573678E-17,46.));
#1555=CARTESIAN_POINT('Ctrl Pts',(-1.17343502970147,-1.43704345313129E-16,
46.));
#1556=CARTESIAN_POINT('Ctrl Pts',(-2.65066743095584,-3.24613138492421E-16,
45.8872843975929));
#1557=CARTESIAN_POINT('Ctrl Pts',(-4.26346971336149,-5.22124453772984E-16,
45.383864471622));
#1558=CARTESIAN_POINT('Ctrl Pts',(-5.28420019727869,-6.47127885765116E-16,
44.7105807491159));
#1559=CARTESIAN_POINT('Ctrl Pts',(-5.5,-6.73555739531044E-16,44.2693740118806));
#1560=CARTESIAN_POINT('Ctrl Pts',(-5.5,-6.73555739531044E-16,44.));
#1561=CARTESIAN_POINT('Ctrl Pts',(-5.5,-6.73555739531044E-16,44.));
#1562=CARTESIAN_POINT('Ctrl Pts',(-5.5,-0.822798075940185,44.));
#1563=CARTESIAN_POINT('Ctrl Pts',(-5.12520255199352,-2.46627041121347,44.));
#1564=CARTESIAN_POINT('Ctrl Pts',(-3.54560526224021,-4.45095975724601,44.));
#1565=CARTESIAN_POINT('Ctrl Pts',(-1.26734654856001,-5.53801302295679,44.));
#1566=CARTESIAN_POINT('Ctrl Pts',(2.11404302642005,-5.56308974177193,44.));
#1567=CARTESIAN_POINT('Ctrl Pts',(5.67714155846602,-2.73556362481412,44.));
#1568=CARTESIAN_POINT('Ctrl Pts',(5.66707183184372,1.81887944817341,44.));
#1569=CARTESIAN_POINT('Ctrl Pts',(3.54110745059689,4.43932690730759,44.));
#1570=CARTESIAN_POINT('Ctrl Pts',(0.505455474331595,5.93488628762551,44.));
#1571=CARTESIAN_POINT('Ctrl Pts',(-3.02627052936446,5.12337914638197,44.));
#1572=CARTESIAN_POINT('Ctrl Pts',(-5.12234721409907,2.46132029637888,44.));
#1573=CARTESIAN_POINT('Ctrl Pts',(-5.5,0.822798075940186,44.));
#1574=CARTESIAN_POINT('Ctrl Pts',(-5.5,1.7689349146443E-15,44.));
#1575=CARTESIAN_POINT('Ctrl Pts',(-0.5,6.12323399573678E-17,46.));
#1576=CARTESIAN_POINT('Ctrl Pts',(-0.5,0.0747998250854714,46.));
#1577=CARTESIAN_POINT('Ctrl Pts',(-0.465667928554461,0.223756390579898,
46.));
#1578=CARTESIAN_POINT('Ctrl Pts',(-0.275115502669497,0.465761740580179,
46.));
#1579=CARTESIAN_POINT('Ctrl Pts',(0.0459504976665085,0.539535117056865,
46.));
#1580=CARTESIAN_POINT('Ctrl Pts',(0.321918859145172,0.4035751733916,46.));
#1581=CARTESIAN_POINT('Ctrl Pts',(0.51518834834943,0.165352677106674,46.));
#1582=CARTESIAN_POINT('Ctrl Pts',(0.516103778042367,-0.24868760225583,46.));
#1583=CARTESIAN_POINT('Ctrl Pts',(0.19218572967455,-0.505735431070175,46.));
#1584=CARTESIAN_POINT('Ctrl Pts',(-0.115213322596364,-0.503455729359709,
46.));
#1585=CARTESIAN_POINT('Ctrl Pts',(-0.322327751112746,-0.404632705204183,
46.));
#1586=CARTESIAN_POINT('Ctrl Pts',(-0.465927504726684,-0.224206401019407,
46.));
#1587=CARTESIAN_POINT('Ctrl Pts',(-0.5,-0.0747998250854714,46.));
#1588=CARTESIAN_POINT('Ctrl Pts',(-0.5,-6.12323399573678E-17,46.));
#1589=CARTESIAN_POINT('Origin',(0.,0.,0.));
#1590=CARTESIAN_POINT('',(-5.5,-6.73555739531044E-16,39.));
#1591=CARTESIAN_POINT('',(-5.5,-6.73555739531044E-16,0.));
#1592=CARTESIAN_POINT('Origin',(0.,0.,39.));
#1593=CARTESIAN_POINT('Origin',(0.,0.,46.));
#1594=CARTESIAN_POINT('Origin',(2.86788218175523,-4.09576022144496,-10.5));
#1595=CARTESIAN_POINT('',(4.61788218175523,-4.09576022144496,-12.));
#1596=CARTESIAN_POINT('Origin',(2.86788218175523,-4.09576022144496,-12.));
#1597=CARTESIAN_POINT('',(6.11788218175523,-4.09576022144496,-10.5));
#1598=CARTESIAN_POINT('Origin',(4.61788218175523,-4.09576022144496,-10.5));
#1599=CARTESIAN_POINT('',(-0.38211781824477,-4.09576022144496,-10.5));
#1600=CARTESIAN_POINT('Origin',(2.86788218175523,-4.09576022144496,-10.5));
#1601=CARTESIAN_POINT('Origin',(2.86788218175523,-4.09576022144496,-10.5));
#1602=CARTESIAN_POINT('Origin',(2.86788218175523,-4.09576022144496,0.));
#1603=CARTESIAN_POINT('',(-0.38211781824477,-4.09576022144496,-8.));
#1604=CARTESIAN_POINT('',(-0.38211781824477,-4.09576022144496,0.));
#1605=CARTESIAN_POINT('Origin',(2.86788218175523,-4.09576022144496,-8.));
#1606=CARTESIAN_POINT('Origin',(2.86788218175523,-4.09576022144496,-12.));
#1607=CARTESIAN_POINT('Origin',(-2.86788218175523,4.09576022144496,-10.5));
#1608=CARTESIAN_POINT('',(-1.11788218175523,4.09576022144496,-12.));
#1609=CARTESIAN_POINT('Origin',(-2.86788218175523,4.09576022144496,-12.));
#1610=CARTESIAN_POINT('',(0.382117818244769,4.09576022144496,-10.5));
#1611=CARTESIAN_POINT('Origin',(-1.11788218175523,4.09576022144496,-10.5));
#1612=CARTESIAN_POINT('',(-6.11788218175523,4.09576022144496,-10.5));
#1613=CARTESIAN_POINT('Origin',(-2.86788218175523,4.09576022144496,-10.5));
#1614=CARTESIAN_POINT('Origin',(-2.86788218175523,4.09576022144496,-10.5));
#1615=CARTESIAN_POINT('Origin',(-2.86788218175523,4.09576022144496,0.));
#1616=CARTESIAN_POINT('',(-6.11788218175523,4.09576022144496,-8.));
#1617=CARTESIAN_POINT('',(-6.11788218175523,4.09576022144496,0.));
#1618=CARTESIAN_POINT('Origin',(-2.86788218175523,4.09576022144496,-8.));
#1619=CARTESIAN_POINT('Origin',(-2.86788218175523,4.09576022144496,-12.));
#1620=CARTESIAN_POINT('Origin',(0.,0.,2.));
#1621=CARTESIAN_POINT('',(-14.25,1.74512168878498E-15,2.));
#1622=CARTESIAN_POINT('Origin',(0.,0.,2.));
#1623=CARTESIAN_POINT('',(-12.25,-1.50019232895551E-15,0.));
#1624=CARTESIAN_POINT('Origin',(-12.25,-1.50019232895551E-15,2.));
#1625=CARTESIAN_POINT('Origin',(0.,0.,0.));
#1626=CARTESIAN_POINT('Origin',(0.,0.,0.));
#1627=CARTESIAN_POINT('',(-11.,-1.34711147906209E-15,0.));
#1628=CARTESIAN_POINT('Origin',(0.,0.,0.));
#1629=CARTESIAN_POINT('Origin',(0.,0.,0.));
#1630=CARTESIAN_POINT('',(-14.25,-1.74512168878498E-15,5.));
#1631=CARTESIAN_POINT('Origin',(0.,0.,5.));
#1632=CARTESIAN_POINT('',(-14.25,-1.74512168878498E-15,0.));
#1633=CARTESIAN_POINT('Origin',(5.78578751408683,-9.3554616584043,0.));
#1634=CARTESIAN_POINT('',(-2.79227136299681,-4.18685677596703,-8.));
#1635=CARTESIAN_POINT('',(0.566058545561936,-0.808415383543619,-8.));
#1636=CARTESIAN_POINT('Origin',(5.78578751408683,-9.3554616584043,-8.));
#1637=CARTESIAN_POINT('',(-2.79227136299681,-4.18685677596703,-10.5));
#1638=CARTESIAN_POINT('',(-2.79227136299681,-4.18685677596703,0.));
#1639=CARTESIAN_POINT('',(0.566058545561935,-0.808415383543619,-10.5));
#1640=CARTESIAN_POINT('Origin',(5.78578751408683,-9.3554616584043,-10.5));
#1641=CARTESIAN_POINT('',(0.566058545561936,-0.808415383543619,0.));
#1642=CARTESIAN_POINT('Origin',(-6.81240240962552,8.6366181697082,0.));
#1643=CARTESIAN_POINT('',(-0.566058545561936,0.80841538354362,-8.));
#1644=CARTESIAN_POINT('',(-4.88937146843984,-1.19188744043823,-8.));
#1645=CARTESIAN_POINT('Origin',(-6.81240240962552,8.6366181697082,-8.));
#1646=CARTESIAN_POINT('',(-0.566058545561936,0.80841538354362,-10.5));
#1647=CARTESIAN_POINT('',(-0.566058545561936,0.80841538354362,0.));
#1648=CARTESIAN_POINT('',(-4.88937146843984,-1.19188744043823,-10.5));
#1649=CARTESIAN_POINT('Origin',(-6.81240240962552,8.6366181697082,-10.5));
#1650=CARTESIAN_POINT('',(-4.88937146843984,-1.19188744043823,0.));
#1651=CARTESIAN_POINT('Origin',(-4.50533624358946,-3.15467039993075,0.));
#1652=CARTESIAN_POINT('',(-5.20648621432726,-1.28160106898372,-8.));
#1653=CARTESIAN_POINT('Origin',(-4.50533624358946,-3.15467039993075,-8.));
#1654=CARTESIAN_POINT('Origin',(-4.50533624358946,-3.15467039993075,-10.5));
#1655=CARTESIAN_POINT('',(-2.98503422856266,-4.45416329452674,-8.));
#1656=CARTESIAN_POINT('Origin',(-4.50533624358946,-3.15467039993075,-8.));
#1657=CARTESIAN_POINT('',(-2.98503422856266,-4.45416329452674,-3.));
#1658=CARTESIAN_POINT('',(-2.98503422856266,-4.45416329452674,0.));
#1659=CARTESIAN_POINT('',(-5.20648621432726,-1.28160106898372,-3.));
#1660=CARTESIAN_POINT('Origin',(-4.50533624358946,-3.15467039993075,-3.));
#1661=CARTESIAN_POINT('',(-5.20648621432726,-1.28160106898372,0.));
#1662=CARTESIAN_POINT('Origin',(0.,1.11022302462516E-15,-8.));
#1663=CARTESIAN_POINT('',(4.88937146843984,1.19188744043823,-8.));
#1664=CARTESIAN_POINT('Origin',(6.81240240962552,-8.6366181697082,-8.));
#1665=CARTESIAN_POINT('',(5.20648621432726,1.28160106898372,-8.));
#1666=CARTESIAN_POINT('Origin',(4.50533624358946,3.15467039993075,-8.));
#1667=CARTESIAN_POINT('',(6.96364240320019,-1.22787803968973,-8.));
#1668=CARTESIAN_POINT('',(6.96364240320019,-1.22787803968973,-8.));
#1669=CARTESIAN_POINT('',(-1.22787803968973,-6.96364240320019,-8.));
#1670=CARTESIAN_POINT('Origin',(2.86788218175523,-4.09576022144496,-8.));
#1671=CARTESIAN_POINT('',(-1.22787803968973,-6.96364240320019,-8.));
#1672=CARTESIAN_POINT('Origin',(0.,1.11022302462516E-15,-8.));
#1673=CARTESIAN_POINT('',(-6.96364240320019,1.22787803968973,-8.));
#1674=CARTESIAN_POINT('',(-1.22787803968973,-6.96364240320019,-8.));
#1675=CARTESIAN_POINT('',(1.22787803968973,6.96364240320019,-8.));
#1676=CARTESIAN_POINT('Origin',(-2.86788218175523,4.09576022144496,-8.));
#1677=CARTESIAN_POINT('',(2.98503422856266,4.45416329452674,-8.));
#1678=CARTESIAN_POINT('',(6.96364240320019,-1.22787803968973,-8.));
#1679=CARTESIAN_POINT('',(2.79227136299681,4.18685677596702,-8.));
#1680=CARTESIAN_POINT('Origin',(4.50533624358946,3.15467039993075,-8.));
#1681=CARTESIAN_POINT('Origin',(-5.78578751408682,9.3554616584043,-8.));
#1682=CARTESIAN_POINT('Origin',(0.,0.,-3.));
#1683=CARTESIAN_POINT('',(-11.,-1.34711147906209E-15,-3.));
#1684=CARTESIAN_POINT('Origin',(0.,0.,-3.));
#1685=CARTESIAN_POINT('',(-1.22787803968973,-6.96364240320019,-3.));
#1686=CARTESIAN_POINT('',(-2.66181913056734,-4.91576229247771,-3.));
#1687=CARTESIAN_POINT('',(6.96364240320019,-1.22787803968973,-3.));
#1688=CARTESIAN_POINT('Origin',(2.86788218175523,-4.09576022144496,-3.));
#1689=CARTESIAN_POINT('',(5.20648621432726,1.28160106898372,-3.));
#1690=CARTESIAN_POINT('',(2.66181913056734,4.91576229247771,-3.));
#1691=CARTESIAN_POINT('',(2.98503422856266,4.45416329452674,-3.));
#1692=CARTESIAN_POINT('Origin',(4.50533624358946,3.15467039993075,-3.));
#1693=CARTESIAN_POINT('',(1.22787803968973,6.96364240320019,-3.));
#1694=CARTESIAN_POINT('',(2.66181913056734,4.91576229247771,-3.));
#1695=CARTESIAN_POINT('',(-6.96364240320019,1.22787803968973,-3.));
#1696=CARTESIAN_POINT('Origin',(-2.86788218175523,4.09576022144496,-3.));
#1697=CARTESIAN_POINT('',(-2.66181913056734,-4.91576229247771,-3.));
#1698=CARTESIAN_POINT('Origin',(-1.22787803968973,-6.96364240320019,0.));
#1699=CARTESIAN_POINT('',(-1.22787803968973,-6.96364240320019,0.));
#1700=CARTESIAN_POINT('Origin',(-1.22787803968973,-6.96364240320019,0.));
#1701=CARTESIAN_POINT('',(-6.96364240320019,1.22787803968973,0.));
#1702=CARTESIAN_POINT('Origin',(-5.78578751408682,9.3554616584043,0.));
#1703=CARTESIAN_POINT('',(2.79227136299681,4.18685677596702,-10.5));
#1704=CARTESIAN_POINT('',(2.79227136299681,4.18685677596702,0.));
#1705=CARTESIAN_POINT('Origin',(-5.78578751408682,9.3554616584043,-10.5));
#1706=CARTESIAN_POINT('Origin',(6.81240240962552,-8.6366181697082,0.));
#1707=CARTESIAN_POINT('',(4.88937146843984,1.19188744043823,-10.5));
#1708=CARTESIAN_POINT('Origin',(6.81240240962552,-8.6366181697082,-10.5));
#1709=CARTESIAN_POINT('',(4.88937146843984,1.19188744043823,0.));
#1710=CARTESIAN_POINT('Origin',(4.50533624358946,3.15467039993075,0.));
#1711=CARTESIAN_POINT('Origin',(4.50533624358946,3.15467039993075,-10.5));
#1712=CARTESIAN_POINT('',(2.98503422856266,4.45416329452674,0.));
#1713=CARTESIAN_POINT('',(5.20648621432726,1.28160106898372,0.));
#1714=CARTESIAN_POINT('Origin',(2.96963884901376,2.17312750819352,-10.5));
#1715=CARTESIAN_POINT('Origin',(1.22787803968973,6.96364240320019,0.));
#1716=CARTESIAN_POINT('',(1.22787803968973,6.96364240320019,0.));
#1717=CARTESIAN_POINT('Origin',(1.22787803968973,6.96364240320019,0.));
#1718=CARTESIAN_POINT('',(6.96364240320019,-1.22787803968973,0.));
#1719=CARTESIAN_POINT('Origin',(-2.86788218175523,4.09576022144496,0.));
#1720=CARTESIAN_POINT('Origin',(2.86788218175523,-4.09576022144496,0.));
#1721=CARTESIAN_POINT('Origin',(0.,0.,0.));
#1722=CARTESIAN_POINT('',(-11.,1.34711147906209E-15,0.));
#1723=CARTESIAN_POINT('Origin',(0.,0.,0.));
#1724=CARTESIAN_POINT('',(-7.75,-9.49101269339199E-16,39.));
#1725=CARTESIAN_POINT('Origin',(0.,0.,39.));
#1726=CARTESIAN_POINT('',(-7.75,-9.49101269339199E-16,22.));
#1727=CARTESIAN_POINT('',(-7.75,-9.49101269339199E-16,0.));
#1728=CARTESIAN_POINT('',(-7.71362431027076,-0.749999999999999,22.));
#1729=CARTESIAN_POINT('Origin',(0.,0.,22.));
#1730=CARTESIAN_POINT('',(-7.71362431027076,-0.75,21.));
#1731=CARTESIAN_POINT('',(-7.71362431027076,-0.749999999999999,0.));
#1732=CARTESIAN_POINT('',(-0.500000000000001,-7.73385414912901,21.));
#1733=CARTESIAN_POINT('Origin',(0.,0.,21.));
#1734=CARTESIAN_POINT('',(-0.500000000000001,-7.73385414912901,22.));
#1735=CARTESIAN_POINT('',(-0.500000000000001,-7.73385414912901,0.));
#1736=CARTESIAN_POINT('',(0.499999999999998,-7.73385414912901,22.));
#1737=CARTESIAN_POINT('Origin',(0.,0.,22.));
#1738=CARTESIAN_POINT('',(0.499999999999998,-7.73385414912901,21.));
#1739=CARTESIAN_POINT('',(0.499999999999998,-7.73385414912901,0.));
#1740=CARTESIAN_POINT('',(7.60345316287277,-1.5,21.));
#1741=CARTESIAN_POINT('Origin',(0.,0.,21.));
#1742=CARTESIAN_POINT('',(7.60345316287277,-1.5,22.));
#1743=CARTESIAN_POINT('',(7.60345316287277,-1.5,0.));
#1744=CARTESIAN_POINT('',(7.60345316287278,1.5,22.));
#1745=CARTESIAN_POINT('Origin',(0.,0.,22.));
#1746=CARTESIAN_POINT('',(7.60345316287278,1.5,21.));
#1747=CARTESIAN_POINT('',(7.60345316287278,1.5,0.));
#1748=CARTESIAN_POINT('',(0.5,7.73385414912942,21.));
#1749=CARTESIAN_POINT('Origin',(0.,0.,21.));
#1750=CARTESIAN_POINT('',(0.5,7.73385414912942,22.));
#1751=CARTESIAN_POINT('',(0.5,7.73385414912942,0.));
#1752=CARTESIAN_POINT('',(-0.499999999999999,7.73385414912942,22.));
#1753=CARTESIAN_POINT('Origin',(0.,0.,22.));
#1754=CARTESIAN_POINT('',(-0.499999999999999,7.73385414912942,21.));
#1755=CARTESIAN_POINT('',(-0.499999999999999,7.73385414912942,0.));
#1756=CARTESIAN_POINT('',(-7.71362431027076,0.750000000000001,21.));
#1757=CARTESIAN_POINT('Origin',(0.,0.,21.));
#1758=CARTESIAN_POINT('',(-7.71362431027076,0.75,22.));
#1759=CARTESIAN_POINT('',(-7.71362431027076,0.75,0.));
#1760=CARTESIAN_POINT('Origin',(0.,0.,22.));
#1761=CARTESIAN_POINT('Origin',(0.,0.,39.));
#1762=CARTESIAN_POINT('Origin',(-0.500000000000001,-7.73385414912901,0.));
#1763=CARTESIAN_POINT('',(-0.5,-11.6304009862562,21.));
#1764=CARTESIAN_POINT('',(-0.500000000000001,-7.73385414912901,21.));
#1765=CARTESIAN_POINT('',(-0.5,-11.6304009862562,22.));
#1766=CARTESIAN_POINT('',(-0.5,-11.6304009862562,0.));
#1767=CARTESIAN_POINT('',(-0.500000000000001,-7.73385414912901,22.));
#1768=CARTESIAN_POINT('Origin',(0.5,-11.6304009862562,0.));
#1769=CARTESIAN_POINT('',(0.5,-11.6304009862562,21.));
#1770=CARTESIAN_POINT('',(0.5,-11.6304009862562,21.));
#1771=CARTESIAN_POINT('',(0.5,-11.6304009862562,22.));
#1772=CARTESIAN_POINT('',(0.5,-11.6304009862562,22.));
#1773=CARTESIAN_POINT('',(0.5,-11.6304009862562,0.));
#1774=CARTESIAN_POINT('Origin',(-0.5,-11.6304009862562,0.));
#1775=CARTESIAN_POINT('',(-0.5,-11.6304009862562,21.));
#1776=CARTESIAN_POINT('',(-0.5,-11.6304009862562,22.));
#1777=CARTESIAN_POINT('Origin',(-4.85722573273506E-16,-9.68212756769262,
22.));
#1778=CARTESIAN_POINT('Origin',(0.5,7.73385414912942,0.));
#1779=CARTESIAN_POINT('',(0.5,11.6304009862566,21.));
#1780=CARTESIAN_POINT('',(0.5,7.73385414912942,21.));
#1781=CARTESIAN_POINT('',(0.5,11.6304009862566,22.));
#1782=CARTESIAN_POINT('',(0.5,11.6304009862566,0.));
#1783=CARTESIAN_POINT('',(0.5,7.73385414912942,22.));
#1784=CARTESIAN_POINT('Origin',(-0.5,11.6304009862566,0.));
#1785=CARTESIAN_POINT('',(-0.5,11.6304009862566,21.));
#1786=CARTESIAN_POINT('',(-0.5,11.6304009862566,21.));
#1787=CARTESIAN_POINT('',(-0.5,11.6304009862566,22.));
#1788=CARTESIAN_POINT('',(-0.5,11.6304009862566,22.));
#1789=CARTESIAN_POINT('',(-0.5,11.6304009862566,0.));
#1790=CARTESIAN_POINT('Origin',(0.5,11.6304009862566,0.));
#1791=CARTESIAN_POINT('',(0.5,11.6304009862566,21.));
#1792=CARTESIAN_POINT('',(0.5,11.6304009862566,22.));
#1793=CARTESIAN_POINT('Origin',(0.,9.68212756769283,22.));
#1794=CARTESIAN_POINT('Origin',(-7.71362431027076,0.75,0.));
#1795=CARTESIAN_POINT('',(-11.610171147398,0.750000000000001,21.));
#1796=CARTESIAN_POINT('',(-7.71362431027076,0.75,21.));
#1797=CARTESIAN_POINT('',(-11.610171147398,0.75,22.));
#1798=CARTESIAN_POINT('',(-11.610171147398,0.75,0.));
#1799=CARTESIAN_POINT('',(-7.71362431027076,0.75,22.));
#1800=CARTESIAN_POINT('Origin',(-11.610171147398,-0.75,0.));
#1801=CARTESIAN_POINT('',(-11.610171147398,-0.750000000000001,21.));
#1802=CARTESIAN_POINT('',(-11.610171147398,-0.75,21.));
#1803=CARTESIAN_POINT('',(-11.610171147398,-0.75,22.));
#1804=CARTESIAN_POINT('',(-11.610171147398,-0.75,22.));
#1805=CARTESIAN_POINT('',(-11.610171147398,-0.75,0.));
#1806=CARTESIAN_POINT('Origin',(-11.610171147398,0.75,0.));
#1807=CARTESIAN_POINT('',(-11.610171147398,0.75,21.));
#1808=CARTESIAN_POINT('',(-11.610171147398,0.75,22.));
#1809=CARTESIAN_POINT('Origin',(-9.66189772883437,8.32667268468867E-16,
22.));
#1810=CARTESIAN_POINT('Origin',(7.60345316287277,-1.5,0.));
#1811=CARTESIAN_POINT('',(11.5,-1.5,21.));
#1812=CARTESIAN_POINT('',(11.5,-1.5,21.));
#1813=CARTESIAN_POINT('',(11.5,-1.5,22.));
#1814=CARTESIAN_POINT('',(11.5,-1.5,0.));
#1815=CARTESIAN_POINT('',(11.5,-1.5,22.));
#1816=CARTESIAN_POINT('Origin',(11.5,-1.5,0.));
#1817=CARTESIAN_POINT('',(11.5,1.5,21.));
#1818=CARTESIAN_POINT('',(11.5,1.5,21.));
#1819=CARTESIAN_POINT('',(11.5,1.5,22.));
#1820=CARTESIAN_POINT('',(11.5,1.5,0.));
#1821=CARTESIAN_POINT('',(11.5,1.5,22.));
#1822=CARTESIAN_POINT('Origin',(11.5,1.5,0.));
#1823=CARTESIAN_POINT('',(7.60345316287278,1.5,21.));
#1824=CARTESIAN_POINT('',(7.60345316287278,1.5,22.));
#1825=CARTESIAN_POINT('Origin',(9.55172658143639,-2.77555756156289E-16,
22.));
#1826=CARTESIAN_POINT('Origin',(0.,0.,0.));
#1827=CARTESIAN_POINT('',(-13.25,-1.11022302462516E-15,21.));
#1828=CARTESIAN_POINT('Origin',(0.,0.,21.));
#1829=CARTESIAN_POINT('',(-13.25,-1.62265700887024E-15,5.));
#1830=CARTESIAN_POINT('',(-13.25,-1.62265700887024E-15,0.));
#1831=CARTESIAN_POINT('Origin',(0.,0.,5.));
#1832=CARTESIAN_POINT('Origin',(0.,0.,21.));
#1833=CARTESIAN_POINT('Origin',(0.,0.,5.));
#1834=CARTESIAN_POINT('Origin',(0.,0.,24.));
#1835=CARTESIAN_POINT('',(-8.,-9.79717439317883E-16,26.5));
#1836=CARTESIAN_POINT('Origin',(0.,0.,26.5));
#1837=CARTESIAN_POINT('',(-8.,-9.79717439317883E-16,24.));
#1838=CARTESIAN_POINT('',(-8.,-9.79717439317883E-16,24.));
#1839=CARTESIAN_POINT('Origin',(0.,0.,24.));
#1840=CARTESIAN_POINT('Origin',(12.,6.9282032302755,24.));
#1841=CARTESIAN_POINT('',(7.7715611723761E-15,13.856406460551,24.));
#1842=CARTESIAN_POINT('',(12.,6.9282032302755,24.));
#1843=CARTESIAN_POINT('',(9.,8.66025403784438,24.));
#1844=CARTESIAN_POINT('',(7.7715611723761E-15,13.856406460551,26.5));
#1845=CARTESIAN_POINT('',(7.7715611723761E-15,13.856406460551,24.));
#1846=CARTESIAN_POINT('',(12.,6.9282032302755,26.5));
#1847=CARTESIAN_POINT('',(9.,8.66025403784438,26.5));
#1848=CARTESIAN_POINT('',(12.,6.9282032302755,24.));
#1849=CARTESIAN_POINT('Origin',(12.,-6.92820323027551,24.));
#1850=CARTESIAN_POINT('',(12.,-6.92820323027551,24.));
#1851=CARTESIAN_POINT('',(12.,-3.46410161513776,24.));
#1852=CARTESIAN_POINT('',(12.,-6.92820323027551,26.5));
#1853=CARTESIAN_POINT('',(12.,-3.46410161513776,26.5));
#1854=CARTESIAN_POINT('',(12.,-6.92820323027551,24.));
#1855=CARTESIAN_POINT('Origin',(-3.88578058618805E-15,-13.856406460551,
24.));
#1856=CARTESIAN_POINT('',(-4.44089209850063E-15,-13.856406460551,24.));
#1857=CARTESIAN_POINT('',(3.,-12.1243556529821,24.));
#1858=CARTESIAN_POINT('',(-4.44089209850063E-15,-13.856406460551,26.5));
#1859=CARTESIAN_POINT('',(3.,-12.1243556529821,26.5));
#1860=CARTESIAN_POINT('',(-4.44089209850063E-15,-13.856406460551,24.));
#1861=CARTESIAN_POINT('Origin',(-12.,-6.92820323027551,24.));
#1862=CARTESIAN_POINT('',(-12.,-6.92820323027551,24.));
#1863=CARTESIAN_POINT('',(-9.,-8.66025403784439,24.));
#1864=CARTESIAN_POINT('',(-12.,-6.92820323027551,26.5));
#1865=CARTESIAN_POINT('',(-9.,-8.66025403784439,26.5));
#1866=CARTESIAN_POINT('',(-12.,-6.92820323027551,24.));
#1867=CARTESIAN_POINT('Origin',(-12.,6.92820323027552,24.));
#1868=CARTESIAN_POINT('',(-12.,6.92820323027552,24.));
#1869=CARTESIAN_POINT('',(-12.,3.46410161513776,24.));
#1870=CARTESIAN_POINT('',(-12.,6.92820323027552,26.5));
#1871=CARTESIAN_POINT('',(-12.,3.46410161513776,26.5));
#1872=CARTESIAN_POINT('',(-12.,6.92820323027552,24.));
#1873=CARTESIAN_POINT('Origin',(7.7715611723761E-15,13.856406460551,24.));
#1874=CARTESIAN_POINT('',(-2.99999999999999,12.1243556529821,24.));
#1875=CARTESIAN_POINT('',(-2.99999999999999,12.1243556529821,26.5));
#1876=CARTESIAN_POINT('Origin',(0.,-1.11022302462516E-15,26.5));
#1877=CARTESIAN_POINT('Origin',(0.,-1.11022302462516E-15,24.));
#1878=UNCERTAINTY_MEASURE_WITH_UNIT(LENGTH_MEASURE(0.01),#1882,
'DISTANCE_ACCURACY_VALUE',
'Maximum model space distance between geometric entities at asserted c
onnectivities');
#1879=UNCERTAINTY_MEASURE_WITH_UNIT(LENGTH_MEASURE(0.01),#1882,
'DISTANCE_ACCURACY_VALUE',
'Maximum model space distance between geometric entities at asserted c
onnectivities');
#1880=(
GEOMETRIC_REPRESENTATION_CONTEXT(3)
GLOBAL_UNCERTAINTY_ASSIGNED_CONTEXT((#1878))
GLOBAL_UNIT_ASSIGNED_CONTEXT((#1882,#1884,#1885))
REPRESENTATION_CONTEXT('','3D')
);
#1881=(
GEOMETRIC_REPRESENTATION_CONTEXT(3)
GLOBAL_UNCERTAINTY_ASSIGNED_CONTEXT((#1879))
GLOBAL_UNIT_ASSIGNED_CONTEXT((#1882,#1884,#1885))
REPRESENTATION_CONTEXT('','3D')
);
#1882=(
LENGTH_UNIT()
NAMED_UNIT(*)
SI_UNIT(.MILLI.,.METRE.)
);
#1883=(
LENGTH_UNIT()
NAMED_UNIT(*)
SI_UNIT($,.METRE.)
);
#1884=(
NAMED_UNIT(*)
PLANE_ANGLE_UNIT()
SI_UNIT($,.RADIAN.)
);
#1885=(
NAMED_UNIT(*)
SI_UNIT($,.STERADIAN.)
SOLID_ANGLE_UNIT()
);
#1886=SHAPE_DEFINITION_REPRESENTATION(#1887,#1888);
#1887=PRODUCT_DEFINITION_SHAPE('',$,#1890);
#1888=SHAPE_REPRESENTATION('',(#1035),#1880);
#1889=PRODUCT_DEFINITION_CONTEXT('part definition',#1894,'design');
#1890=PRODUCT_DEFINITION('Switch 12V 50A (A)','Switch 12V 50A (A) v1',#1891,
#1889);
#1891=PRODUCT_DEFINITION_FORMATION('',$,#1896);
#1892=PRODUCT_RELATED_PRODUCT_CATEGORY('Switch 12V 50A (A) v1',
'Switch 12V 50A (A) v1',(#1896));
#1893=APPLICATION_PROTOCOL_DEFINITION('international standard',
'automotive_design',2009,#1894);
#1894=APPLICATION_CONTEXT(
'Core Data for Automotive Mechanical Design Process');
#1895=PRODUCT_CONTEXT('part definition',#1894,'mechanical');
#1896=PRODUCT('Switch 12V 50A (A)','Switch 12V 50A (A) v1',$,(#1895));
#1897=PRESENTATION_STYLE_ASSIGNMENT((#1898));
#1898=SURFACE_STYLE_USAGE(.BOTH.,#1899);
#1899=SURFACE_SIDE_STYLE('',(#1900));
#1900=SURFACE_STYLE_FILL_AREA(#1901);
#1901=FILL_AREA_STYLE('Steel - Satin',(#1902));
#1902=FILL_AREA_STYLE_COLOUR('Steel - Satin',#1903);
#1903=COLOUR_RGB('Steel - Satin',0.627450980392157,0.627450980392157,0.627450980392157);
ENDSEC;
END-ISO-10303-21;
